<svg id="Слой_1" data-name="Слой 1" xmlns="http://www.w3.org/2000/svg" viewBox="0 0 343.13 213.02"><defs><style>.cls-1{fill:none;stroke:#fff;stroke-linecap:round;stroke-linejoin:round;stroke-width:5px;stroke-dasharray:12;}.cls-2,.cls-5{fill:#fff;}.cls-3,.cls-5{font-size:18px;font-family:Tahoma, Tahoma;}.cls-3{fill:#308a56;}.cls-4{fill:#107a43;}</style></defs><title>form-right</title><path class="cls-1" d="M305.65,51.25c4.44,3,9.86,6.67,16,11s10,7.15,10,11a7.13,7.13,0,0,1-2,5c-2,2-4.92,2-6,2-11,.06-64-12.11-79-15-7.59-1.46-13.39-2-25-3-29.25-2.59-51.24-1.33-73,0-24,1.47-37.38,2.29-56,6-12.66,2.52-17.87,4.41-34,7-21.64,3.5-32.5,5.21-35,5-1.75-.15-13-1.15-14,2-.17.51,0,.81,0,2a12,12,0,0,1-2,6c-5.62,9.48-2,57-2,57s2.19,28.69,10,43a18.73,18.73,0,0,0,5,6c4.37,3.37,9.28,3.8,12,4,18,1.34,27.07,2,28,2,26.2-.08,21.71.18,27,0,17-.57,23.58-1.85,38-3,7.46-.59,23-.73,54-1,34.27-.3,39,0,46,1,14.68,2.18,22,3.27,31,6a132.29,132.29,0,0,0,22,5s4.5.6,14,0c6.09-.39,8.6-1.06,10-3,.84-1.16.93-2.28,1-6,.12-6.21,0-10.8,0-13a47.9,47.9,0,0,1,1-12c1.34-5.39,3.76-8.14,7-13,2-3,5-9,11-21,5.42-10.85,8.14-16.28,10-22,3-9.29,5-15.57,3-23a28.9,28.9,0,0,0-9-14" transform="translate(0 0)"/><path class="cls-2" d="M172.65,20.25c1.14-3.45,4.89-5.22,11-8a71.82,71.82,0,0,1,15-5c33.22-6.45,30.26-6.45,36-7,7.57-.73,21.82.17,50,2,0,0,11.36.74,41,7,5,1.06,12.82,2.82,16,9,2.25,4.37,1.37,9.35,1,11a19.89,19.89,0,0,1-6,10c-4.35,4.25-9.79,6.63-22,9a154.67,154.67,0,0,1-24,3c-23.82,0-35.85-1.76-71-5-20.51-1.89-29-5-40-11C178,34.36,170.6,26.44,172.65,20.25Z" transform="translate(0 0)"/><text class="cls-3" transform="translate(196 23.29)">สิ่งที่จำเป็นของ </text><path id="DiaVita_Club_копия" data-name="DiaVita Club копия" class="cls-4" d="M223.22,38.64a.75.75,0,0,0,.54.21h4.48q3.48,0,5.05-1.38a5.53,5.53,0,0,0,1.58-4.34,5.53,5.53,0,0,0-1.58-4.36q-1.58-1.4-5.05-1.39h-4.48a.73.73,0,0,0-.54.22.76.76,0,0,0-.22.55v10A.7.7,0,0,0,223.22,38.64Zm2.79-9h2.14a4.14,4.14,0,0,1,2.93.79,3.7,3.7,0,0,1,.78,2.68,3.72,3.72,0,0,1-.78,2.68,4.18,4.18,0,0,1-2.93.78H226Zm10.59-.56a.9.9,0,0,0,.67.24h1a.91.91,0,0,0,.68-.24.92.92,0,0,0,.24-.67v-.27a.85.85,0,0,0-.78-.92h-1.14a.91.91,0,0,0-.68.24.92.92,0,0,0-.24.68v.27a.9.9,0,0,0,.24.67Zm-.07,9.63a.47.47,0,0,0,.35.14h1.79a.47.47,0,0,0,.35-.14.47.47,0,0,0,.14-.35V30.76a.48.48,0,0,0-.46-.48h-1.83a.48.48,0,0,0-.48.46v7.62a.48.48,0,0,0,.14.35Zm7.91.3a4.87,4.87,0,0,0,2.91-.9v.24a.48.48,0,0,0,.14.35.47.47,0,0,0,.35.14h1.54a.47.47,0,0,0,.48-.44v-5a3.08,3.08,0,0,0-1.15-2.64,5,5,0,0,0-3.06-.85q-4.36,0-4.36,2.3a.48.48,0,0,0,.48.48H243a1.21,1.21,0,0,0,1-.48,1.7,1.7,0,0,1,1.37-.48,2,2,0,0,1,1.37.37,1.75,1.75,0,0,1,.39,1.3h-2.63a4.77,4.77,0,0,0-2.73.73,2.35,2.35,0,0,0-1.07,2.07,2.39,2.39,0,0,0,1.07,2.08,4.67,4.67,0,0,0,2.71.73Zm.21-3.79h2.45v1.25a4.38,4.38,0,0,1-2.38.73,1.45,1.45,0,0,1-1-.27.92.92,0,0,1-.12-1.3l.12-.12a1.34,1.34,0,0,1,.88-.27ZM254.05,38a1.21,1.21,0,0,0,1.14.8h1.15a1.21,1.21,0,0,0,1.14-.8l4.61-10a.59.59,0,0,0,0-.21.51.51,0,0,0-.15-.27.54.54,0,0,0-.43-.17h-1.75c-.42,0-.73.27-1,.76L255.75,35l-3.1-6.91a1,1,0,0,0-1-.76H250a.54.54,0,0,0-.42.17.5.5,0,0,0-.15.29.45.45,0,0,0,.05.21Zm9.49-9a.9.9,0,0,0,.67.24h1a.91.91,0,0,0,.68-.24.92.92,0,0,0,.24-.67v-.27a.85.85,0,0,0-.78-.92h-1.14a.91.91,0,0,0-.68.24.92.92,0,0,0-.24.68v.27a.9.9,0,0,0,.24.67Zm-.1,9.64a.48.48,0,0,0,.35.14h1.79a.47.47,0,0,0,.35-.14.47.47,0,0,0,.14-.35V30.76a.48.48,0,0,0-.14-.35.47.47,0,0,0-.35-.14h-1.79a.48.48,0,0,0-.48.46v7.63a.48.48,0,0,0,.14.35Zm7.8-2a1.87,1.87,0,0,1-.39-1.26V32.47h2.23a.48.48,0,0,0,.35-.14.47.47,0,0,0,.14-.35V31a.47.47,0,0,0-.14-.35.48.48,0,0,0-.35-.14h-2.23V27.86a.48.48,0,0,0-.47-.5h-1.81a.48.48,0,0,0-.48.48v7.57q0,3.6,3.44,3.6a11.43,11.43,0,0,0,2.14-.16.62.62,0,0,0,.36-.17.44.44,0,0,0,.14-.32v-.86a.47.47,0,0,0-.46-.48h-.32l-1.1.09a1.29,1.29,0,0,1-1-.47ZM278.66,39a4.86,4.86,0,0,0,2.9-.9v.24a.48.48,0,0,0,.14.35.46.46,0,0,0,.35.14h1.55a.47.47,0,0,0,.48-.44s0,0,0,0V33.42a3.08,3.08,0,0,0-1.15-2.64,5,5,0,0,0-3.06-.85q-4.36,0-4.36,2.3a.48.48,0,0,0,.46.48h1.23a1.21,1.21,0,0,0,1-.48,1.7,1.7,0,0,1,1.38-.48,2,2,0,0,1,1.37.37,1.76,1.76,0,0,1,.4,1.3H278.7a4.78,4.78,0,0,0-2.73.73,2.35,2.35,0,0,0-1.07,2.07A2.39,2.39,0,0,0,276,38.29a4.67,4.67,0,0,0,2.72.73Zm.22-3.79h2.46v1.25a4.39,4.39,0,0,1-2.38.73,1.45,1.45,0,0,1-1-.27.89.89,0,0,1-.33-.71.87.87,0,0,1,.32-.7,1.32,1.32,0,0,1,.89-.27Zm18.38,3.7h1.94a5.61,5.61,0,0,0,3.23-.93,3,3,0,0,0,1.39-2.58,1,1,0,0,0-.22-.61.73.73,0,0,0-.6-.27h-1a1.27,1.27,0,0,0-1.15.89,2,2,0,0,1-2,1.26h-1.61a3,3,0,0,1-2.38-.76,4.55,4.55,0,0,1-.61-2.78,4.55,4.55,0,0,1,.63-2.79,3,3,0,0,1,2.38-.75h1.43a2,2,0,0,1,2,1.26,1.26,1.26,0,0,0,1.14.88h.94a.91.91,0,0,0,.54-.21.78.78,0,0,0,.27-.68,3,3,0,0,0-1.4-2.59,5.61,5.61,0,0,0-3.21-1h-1.77a6.16,6.16,0,0,0-4.45,1.43,5.9,5.9,0,0,0-1.48,4.4,5.8,5.8,0,0,0,1.49,4.38,6.17,6.17,0,0,0,4.45,1.4Zm8.09-.21a.46.46,0,0,0,.35.14h1.79a.46.46,0,0,0,.35-.14.47.47,0,0,0,.14-.35V27.87a.48.48,0,0,0-.14-.36.46.46,0,0,0-.35-.14H305.7a.46.46,0,0,0-.35.14.48.48,0,0,0-.14.36V38.36a.47.47,0,0,0,.14.35Zm5.58-.65a3.48,3.48,0,0,0,2.54,1,4.48,4.48,0,0,0,2.95-1.16v.51a.47.47,0,0,0,.14.35.46.46,0,0,0,.34.14h1.77a.48.48,0,0,0,.48-.46v-7.8a.48.48,0,0,0-.48-.49h-1.79a.46.46,0,0,0-.35.14.48.48,0,0,0-.14.36v5.36a3.22,3.22,0,0,1-2.14,1.15q-1.52,0-1.52-1.92V30.57a.48.48,0,0,0-.14-.36.46.46,0,0,0-.35-.14h-1.79a.46.46,0,0,0-.36.13.48.48,0,0,0-.14.36v4.6a3.92,3.92,0,0,0,1,2.91Zm9.88.05a6.53,6.53,0,0,0,1.88.64,11.79,11.79,0,0,0,2.41.27q5.09,0,5.09-4.54A4.64,4.64,0,0,0,329,31.08a4.16,4.16,0,0,0-3.13-1.17,7.84,7.84,0,0,0-2.31.41V27.87a.48.48,0,0,0-.47-.5H321.3a.46.46,0,0,0-.35.14.48.48,0,0,0-.14.36V38.1Zm4.51-6.26a1.83,1.83,0,0,1,1.56.62,3.35,3.35,0,0,1,.46,2,3.3,3.3,0,0,1-.47,2,1.8,1.8,0,0,1-1.53.62,6.93,6.93,0,0,1-1.75-.18V32.18a6,6,0,0,1,1.74-.32h0Z" transform="translate(0 0)"/><text class="cls-5" transform="translate(17.29 111)">ความสามัคคีของเหล่าพาร์ทเนอร์ที่ดีที่สุด <tspan x="58.02" y="21.6">การสร้างพาร์ทเนอร์ใหม่ๆ </tspan><tspan x="24.22" y="43.2">และให้ความช่วยเหลือซึ่งกันและกัน</tspan><tspan x="86.41" y="64.8">ในการสร้างรายได้</tspan></text></svg>