<svg id="Слой_1" data-name="Слой 1" xmlns="http://www.w3.org/2000/svg" viewBox="0 0 400.52 251.17"><defs><style>.cls-1,.cls-6{fill:#fff;}.cls-2{fill:none;stroke:#fff;stroke-linecap:round;stroke-linejoin:round;stroke-width:5px;stroke-dasharray:12;}.cls-3,.cls-5,.cls-6{isolation:isolate;}.cls-3{font-size:20.14px;fill:#308a56;}.cls-3,.cls-6{font-family:Tahoma, Tahoma;}.cls-4{fill:#107a43;}.cls-6{font-size:20.9px;}</style></defs><title>forms-right</title><path class="cls-1" d="M201.37,28c.16-1,.81-3.72,7-8a46.5,46.5,0,0,1,12-6c22.7-6.74,19.64-7.41,32-10a196,196,0,0,1,40-4c4.22,0,15.48,1,38,3,6.61.59,15,1.36,26,3a180.52,180.52,0,0,1,23,5c13,3.72,16,6.19,18,9a19.39,19.39,0,0,1,3,13c-.82,7-5.22,11.32-8,14-5.74,5.52-12.15,7.64-17,9a136.52,136.52,0,0,1-36,5c-27.53-.37-41.29-.55-56-2-46.41-4.57-41-7-61-11-.71-.14-17-.61-19-7-.17-.54-2.09-.65-3-6C199.37,29.25,201.23,29,201.37,28Z" transform="translate(0 0)"/><path class="cls-2" d="M358.87,61.5c6.44,4.43,11.6,7.81,15,10,5.4,3.48,10.11,6.38,13,12,1.37,2.65,1.6,4.49,1,6-1,2.52-4.06,3.45-6,4a25.33,25.33,0,0,1-13,0c-7.24-1.77-14.85-1.9-22-4-18.13-5.32-66.85-13.29-102-16-30.3-2.34-53.77-1-72,0-29.2,1.64-52.91,5-67,7-11.6,1.66-22.07,3.44-43,7-45,7.66-42.21,8.22-44,8-1.41-.18-6.56-1-10,2a10.6,10.6,0,0,0-3,5,19.83,19.83,0,0,0,0,11c1.61,7-.53,11.28-2,21-3.74,24.74,1.31,55,2,59,0,0,1.76,10.22,9,27,1.47,3.41,3.49,7.75,8,11,3.73,2.69,7.5,3.43,11,4,16.37,2.64,25,2,25,2,15.63-1.16,31.36,0,47-1,38.46-2.56,57.69-3.84,62-4,20.19-.77,41.76-1.59,70,1,20,1.83,40.06,5.07,52,7,18,2.91,27,4.36,29,5a71.88,71.88,0,0,0,16,3c8.28.62,11.16-.61,13-2,3.47-2.61,4.46-6.66,5-9,1.77-7.68-1.68-11.28-2-19-.22-5.19,1.52-9.53,5-18,4.14-10.07,7-13.64,14-26,5.8-10.31,10.21-18.14,14-28,7-18.12,7.29-23.46,7-26-1.06-9.34-6.38-16.19-10-20" transform="translate(0 0)"/><text class="cls-3" transform="translate(225.22 30.49)">สิ่งที่จำเป็นของ</text><path id="DiaVita_Club_копия" data-name="DiaVita Club копия" class="cls-4" d="M255.68,47.67a.84.84,0,0,0,.6.23h5q3.89,0,5.65-1.54a6.19,6.19,0,0,0,1.77-4.86,6.19,6.19,0,0,0-1.77-4.88q-1.77-1.57-5.65-1.56h-5a.82.82,0,0,0-.6.25.85.85,0,0,0-.25.62V47.12A.78.78,0,0,0,255.68,47.67ZM258.8,37.6h2.39a4.63,4.63,0,0,1,3.28.88,4.14,4.14,0,0,1,.87,3,4.16,4.16,0,0,1-.87,3,4.68,4.68,0,0,1-3.28.87h-2.41ZM270.65,37a1,1,0,0,0,.75.27h1.12a1,1,0,0,0,.76-.27,1,1,0,0,0,.27-.75v-.3a1,1,0,0,0-.87-1H271.4a1,1,0,0,0-.76.27,1,1,0,0,0-.27.76v.3a1,1,0,0,0,.27.75Zm-.08,10.77a.53.53,0,0,0,.39.16h2a.54.54,0,0,0,.55-.55v-8.5a.54.54,0,0,0-.51-.54h-2a.54.54,0,0,0-.54.51v8.53A.54.54,0,0,0,270.57,47.74Zm8.85.34a5.45,5.45,0,0,0,3.26-1v.27a.54.54,0,0,0,.16.39.53.53,0,0,0,.39.16h1.72a.53.53,0,0,0,.54-.49V41.8a3.45,3.45,0,0,0-1.29-3,5.59,5.59,0,0,0-3.42-1q-4.88,0-4.88,2.57a.54.54,0,0,0,.54.54h1.38a1.35,1.35,0,0,0,1.12-.54,1.9,1.9,0,0,1,1.53-.54,2.24,2.24,0,0,1,1.53.41,2,2,0,0,1,.44,1.45h-2.94a5.34,5.34,0,0,0-3.05.82,2.63,2.63,0,0,0-1.2,2.32,2.67,2.67,0,0,0,1.2,2.33,5.22,5.22,0,0,0,3,.82Zm.23-4.24h2.74v1.4a4.9,4.9,0,0,1-2.66.82,1.62,1.62,0,0,1-1.12-.3,1,1,0,0,1-.14-1.45h0l.13-.13a1.5,1.5,0,0,1,1-.3ZM290.17,47a1.35,1.35,0,0,0,1.28.9h1.29A1.35,1.35,0,0,0,294,47l5.16-11.19a.66.66,0,0,0,0-.23.57.57,0,0,0-.17-.3.6.6,0,0,0-.48-.19h-2c-.47,0-.82.3-1.12.85l-3.37,7.71-3.47-7.73a1.12,1.12,0,0,0-1.12-.85h-1.85a.6.6,0,0,0-.47.19.56.56,0,0,0-.17.32.5.5,0,0,0,.06.23Zm10.62-10.07a1,1,0,0,0,.75.27h1.12a1,1,0,0,0,.76-.27,1,1,0,0,0,.27-.75v-.3a1,1,0,0,0-.87-1h-1.28a1,1,0,0,0-.76.27,1,1,0,0,0-.27.76v.3a1,1,0,0,0,.27.75Zm-.11,10.79a.54.54,0,0,0,.39.16h2a.54.54,0,0,0,.55-.55V38.85a.54.54,0,0,0-.16-.39.53.53,0,0,0-.39-.16h-2a.54.54,0,0,0-.54.51v8.54a.54.54,0,0,0,.16.39Zm8.73-2.24A2.09,2.09,0,0,1,309,44V40.76h2.49a.54.54,0,0,0,.39-.16.53.53,0,0,0,.16-.39v-1.1a.53.53,0,0,0-.16-.39.54.54,0,0,0-.39-.16H309v-3a.54.54,0,0,0-.51-.56h-2a.54.54,0,0,0-.54.54h0v8.47q0,4,3.85,4a12.79,12.79,0,0,0,2.39-.18.69.69,0,0,0,.4-.19.49.49,0,0,0,.16-.36v-1a.53.53,0,0,0-.51-.54h-.36l-1.23.1a1.44,1.44,0,0,1-1.12-.53Zm8.3,2.64a5.44,5.44,0,0,0,3.24-1v.27a.54.54,0,0,0,.16.39.51.51,0,0,0,.39.16h1.73a.53.53,0,0,0,.54-.49h0V41.83a3.45,3.45,0,0,0-1.29-3,5.59,5.59,0,0,0-3.42-1q-4.88,0-4.88,2.57a.54.54,0,0,0,.51.54h1.38a1.35,1.35,0,0,0,1.12-.54,1.9,1.9,0,0,1,1.54-.54,2.24,2.24,0,0,1,1.53.41,2,2,0,0,1,.45,1.45h-3a5.35,5.35,0,0,0-3.05.82A2.63,2.63,0,0,0,313.5,45a2.67,2.67,0,0,0,1.23,2.32,5.22,5.22,0,0,0,3,.82Zm.25-4.24h2.75v1.4A4.91,4.91,0,0,1,318,46a1.62,1.62,0,0,1-1.12-.3,1,1,0,0,1-.37-.79,1,1,0,0,1,.36-.78,1.48,1.48,0,0,1,1-.3ZM338.52,48h2.17a6.28,6.28,0,0,0,3.61-1A3.36,3.36,0,0,0,345.86,44a1.12,1.12,0,0,0-.25-.68.82.82,0,0,0-.67-.3h-1.12a1.42,1.42,0,0,0-1.29,1,2.24,2.24,0,0,1-2.24,1.41h-1.8a3.36,3.36,0,0,1-2.66-.85,5.09,5.09,0,0,1-.68-3.11,5.09,5.09,0,0,1,.7-3.12,3.36,3.36,0,0,1,2.66-.84h1.6A2.24,2.24,0,0,1,342.36,39a1.41,1.41,0,0,0,1.28,1h1.05a1,1,0,0,0,.6-.23.87.87,0,0,0,.3-.76A3.36,3.36,0,0,0,344,36a6.28,6.28,0,0,0-3.59-1.12h-2a6.89,6.89,0,0,0-5,1.6,6.6,6.6,0,0,0-1.66,4.92,6.49,6.49,0,0,0,1.67,4.9,6.9,6.9,0,0,0,5,1.57Zm9.05-.23a.51.51,0,0,0,.39.16h2a.51.51,0,0,0,.39-.16.53.53,0,0,0,.16-.39V35.62a.54.54,0,0,0-.16-.4.51.51,0,0,0-.39-.16h-2a.51.51,0,0,0-.39.16.54.54,0,0,0-.16.4V47.35a.53.53,0,0,0,.16.39Zm6.24-.73a3.89,3.89,0,0,0,2.84,1.12,5,5,0,0,0,3.3-1.3v.57a.53.53,0,0,0,.16.39.51.51,0,0,0,.38.16h2a.54.54,0,0,0,.54-.51V38.7a.54.54,0,0,0-.53-.55h-2a.51.51,0,0,0-.39.16.54.54,0,0,0-.16.4v6A3.6,3.6,0,0,1,357.53,46q-1.7,0-1.7-2.15V38.64a.54.54,0,0,0-.16-.4.51.51,0,0,0-.39-.16h-2a.51.51,0,0,0-.4.15.54.54,0,0,0-.16.4v5.15A4.39,4.39,0,0,0,353.83,47Zm11.05.06a7.31,7.31,0,0,0,2.1.72,13.19,13.19,0,0,0,2.7.3q5.69,0,5.69-5.08A5.19,5.19,0,0,0,374,39.21a4.65,4.65,0,0,0-3.5-1.31,8.77,8.77,0,0,0-2.58.46V35.62a.54.54,0,0,0-.51-.56h-2a.51.51,0,0,0-.39.16.54.54,0,0,0-.16.4V47.06Zm5-7a2,2,0,0,1,1.75.69,3.75,3.75,0,0,1,.51,2.24,3.69,3.69,0,0,1-.53,2.24,2,2,0,0,1-1.71.69,7.75,7.75,0,0,1-2-.2V40.44a6.71,6.71,0,0,1,1.95-.36h0Z" transform="translate(0 0)"/><g class="cls-5"><text class="cls-6" transform="translate(22.95 122.88)">ความสามัคคีของเหล่าพาร์ทเนอร์ที่ดีที่สุด </text><text class="cls-6" transform="translate(90.31 147.96)">การสร้างพาร์ทเนอร์ใหม่ๆ </text><text class="cls-6" transform="translate(51.07 173.04)">และให้ความช่วยเหลือซึ่งกันและกัน</text><text class="cls-6" transform="translate(123.27 198.12)">ในการสร้างรายได้</text></g></svg>