<svg id="Слой_1" data-name="Слой 1" xmlns="http://www.w3.org/2000/svg" viewBox="0 0 401.97 218.04"><defs><style>.cls-1,.cls-2{fill:none;stroke:#fff;stroke-linecap:round;stroke-linejoin:round;stroke-width:5px;}.cls-2{stroke-dasharray:12.08 12.08;}.cls-3,.cls-4{fill:#fff;}.cls-4,.cls-5{font-size:18px;font-family:Tahoma, Tahoma;}.cls-5{fill:#308a56;}</style></defs><title>form-left</title><path class="cls-1" d="M158.1,67.05c-1.18.82-2.87,2-5,3.39" transform="translate(0 0)"/><path class="cls-2" d="M143,77.06c-4.62,2.94-9.79,6.1-15,9a31.45,31.45,0,0,1-4.34,2.2c-.06,0-.53.21-1,.39a30.29,30.29,0,0,1-6.61,1.41c-4.27.36-10.47-1.7-12-2-6.23-1.21-10.87-.41-19,1-16.54,2.87-20.86,8.73-37,17a3.75,3.75,0,0,0-2,2c-.76,2.37,2.3,5.27,3,6,9.76,10.22,1.55,61.66,1,65a23.43,23.43,0,0,0,0,8,18.85,18.85,0,0,0,2,6,19.07,19.07,0,0,0,7,7c12.33,7.69,30,11,30,11,11.55,2.17,17.33,3.25,28,4,7.75.55,19.77,1.05,51-1,24.14-1.59,23.72-2.34,50-4,14.83-.94,16-.77,35-2,14-.91,19.52-1.4,32-2,23.38-1.12,28.92-.58,33,0,2.86.4,11.06,1.68,19,3,8.17,1.35,10.11,1.76,14,2,8.4.52,13.57.85,19-2,5-2.62,7.71-6.63,10-10a42.64,42.64,0,0,0,6-14c.59-2.23,1.31-5.52,2-20,.65-13.71.17-14.26,1-20a113.37,113.37,0,0,1,4-17c2.32-7.89,7.85-12,6-17a8.5,8.5,0,0,0-2-3c-7.37-7.78-19.86-10.74-21-11-21.29-4.83-28-5-28-5-45.54-1.14-68.31-1.71-81-1-60.21,3.37-76.86,7.56-115,4-4.39-.41-8.45-.87-12.07-1.32" transform="translate(0 0)"/><path class="cls-1" d="M134,92.93c-2.23-.31-4.22-.61-5.93-.88" transform="translate(0 0)"/><path class="cls-3" d="M.1,32.05C5.6,13.55,74.38.63,92.1.05c9.52-.31,4,.81,54,4,0,0,16.19,1,50,9,7.23,1.7,15.34,3.8,20,11a23,23,0,0,1,2,20c-3.56,9.48-13,13.41-22,17a85.38,85.38,0,0,1-32,6c-37.66-.38-56.49-.57-79-3-62.87-6.79-61.7-14.13-76-16a9.87,9.87,0,0,1-5-2C.06,42.81-.23,36.55.1,32.05Z" transform="translate(0 0)"/><path id="DiaVita_Club_копия" data-name="DiaVita Club копия" class="cls-3" d="M272.55,164.58a.75.75,0,0,0,.54.21h4.48q3.48,0,5.05-1.38a6.78,6.78,0,0,0,0-8.71q-1.58-1.4-5.05-1.39h-4.48a.73.73,0,0,0-.54.22.76.76,0,0,0-.22.55v10A.7.7,0,0,0,272.55,164.58Zm2.79-9h2.14a4.14,4.14,0,0,1,2.93.79,5,5,0,0,1,0,5.36,4.18,4.18,0,0,1-2.93.78h-2.14Zm10.59-.56a.9.9,0,0,0,.67.24h1a.91.91,0,0,0,.68-.24.92.92,0,0,0,.24-.67v-.27a.85.85,0,0,0-.78-.92h-1.14a.91.91,0,0,0-.68.24.92.92,0,0,0-.24.68v.27a.9.9,0,0,0,.24.67Zm-.07,9.63a.47.47,0,0,0,.35.14H288a.47.47,0,0,0,.35-.14.47.47,0,0,0,.14-.35V156.7a.48.48,0,0,0-.46-.48h-1.83a.48.48,0,0,0-.48.46v7.62a.48.48,0,0,0,.14.35Zm7.91.3a4.87,4.87,0,0,0,2.91-.9v.24a.48.48,0,0,0,.14.35.47.47,0,0,0,.35.14h1.54a.47.47,0,0,0,.48-.44v-5a3.08,3.08,0,0,0-1.15-2.64,5,5,0,0,0-3.06-.85q-4.36,0-4.36,2.3a.48.48,0,0,0,.48.48h1.22a1.21,1.21,0,0,0,1-.48,1.7,1.7,0,0,1,1.37-.48,2,2,0,0,1,1.37.37,1.75,1.75,0,0,1,.39,1.3H293.8a4.77,4.77,0,0,0-2.73.73,2.35,2.35,0,0,0-1.07,2.07,2.39,2.39,0,0,0,1.07,2.08,4.67,4.67,0,0,0,2.71.73Zm.21-3.79h2.45v1.25a4.38,4.38,0,0,1-2.38.73,1.45,1.45,0,0,1-1-.27.92.92,0,0,1-.12-1.3l.12-.12a1.34,1.34,0,0,1,.88-.27Zm9.39,2.81a1.21,1.21,0,0,0,1.14.8h1.15a1.21,1.21,0,0,0,1.14-.8l4.61-10a.59.59,0,0,0,0-.21.51.51,0,0,0-.15-.27.54.54,0,0,0-.43-.17h-1.75c-.42,0-.73.27-1,.76l-3.1,6.89-3.1-6.91a1,1,0,0,0-1-.76h-1.74a.54.54,0,0,0-.42.17.5.5,0,0,0-.15.29.45.45,0,0,0,.05.21Zm9.49-9a.9.9,0,0,0,.67.24h1a.91.91,0,0,0,.68-.24.92.92,0,0,0,.24-.67V154a.85.85,0,0,0-.78-.92h-1.14a.91.91,0,0,0-.68.24.92.92,0,0,0-.24.68v.27a.9.9,0,0,0,.24.67Zm-.1,9.64a.48.48,0,0,0,.35.14h1.79a.47.47,0,0,0,.35-.14.47.47,0,0,0,.14-.35V156.7a.48.48,0,0,0-.14-.35.47.47,0,0,0-.35-.14h-1.79a.48.48,0,0,0-.48.46v7.63a.48.48,0,0,0,.14.35Zm7.8-2a1.87,1.87,0,0,1-.39-1.26v-2.92h2.23a.48.48,0,0,0,.35-.14.47.47,0,0,0,.14-.35v-1a.47.47,0,0,0-.14-.35.48.48,0,0,0-.35-.14h-2.23V153.8a.48.48,0,0,0-.47-.5H317.9a.48.48,0,0,0-.48.48v7.57q0,3.6,3.44,3.6a11.43,11.43,0,0,0,2.14-.16.62.62,0,0,0,.36-.17.44.44,0,0,0,.14-.32v-.86A.47.47,0,0,0,323,163h-.32l-1.1.09a1.29,1.29,0,0,1-1-.47Zm7.43,2.34a4.86,4.86,0,0,0,2.9-.9v.24a.48.48,0,0,0,.14.35.46.46,0,0,0,.35.14h1.55a.47.47,0,0,0,.48-.44s0,0,0,0v-4.92a3.08,3.08,0,0,0-1.15-2.64,5,5,0,0,0-3.06-.85q-4.36,0-4.36,2.3a.48.48,0,0,0,.46.48h1.23a1.21,1.21,0,0,0,1-.48,1.7,1.7,0,0,1,1.38-.48,2,2,0,0,1,1.37.37,1.76,1.76,0,0,1,.4,1.3H328a4.78,4.78,0,0,0-2.73.73,2.35,2.35,0,0,0-1.07,2.07,2.39,2.39,0,0,0,1.07,2.08A4.67,4.67,0,0,0,328,165Zm.22-3.79h2.46v1.25a4.39,4.39,0,0,1-2.38.73,1.45,1.45,0,0,1-1-.27.89.89,0,0,1-.33-.71.87.87,0,0,1,.32-.7,1.32,1.32,0,0,1,.89-.27Z" transform="translate(0 0)"/><text class="cls-4" transform="translate(72.33 143.33)">การสร้างทีมพาร์ทเนอร์ที่แข็งแกร่งและการ<tspan x="0" y="21.6" xml:space="preserve">     โปรโมทผลิตภัณฑ์ของ </tspan></text><text class="cls-5" transform="translate(42.33 39)">สิ่งที่จำเป็นของธุรกิจ</text></svg>