<svg id="Слой_1" data-name="Слой 1" xmlns="http://www.w3.org/2000/svg" viewBox="0 0 397.91 257.17"><defs><style>.cls-1{fill:none;stroke:#fff;stroke-linecap:round;stroke-linejoin:round;stroke-width:5px;stroke-dasharray:12;}.cls-2,.cls-5{fill:#fff;}.cls-3,.cls-4,.cls-5{isolation:isolate;}.cls-3{font-size:20.99px;fill:#308a56;}.cls-3,.cls-5{font-family:Tahoma, Tahoma;}.cls-5{font-size:18.8px;}</style></defs><title>forms-left</title><path class="cls-1" d="M144,60.66c-6,4.8-11.22,8.47-15,11-9.11,6.11-13.79,9.19-20,11-5,1.45-9,1.63-17,2-9.61.44-11-.52-19,0a81.54,81.54,0,0,0-18,3c-1.09.32-12.89,3.83-22,12-1.94,1.73-3.55,3.5-4,6-.52,2.88.9,4.64,2,9,.79,3.11.76,4.94,1,9,1.3,21.68,8.12,69.86,1,87a23.51,23.51,0,0,0,1,21c1.28,2.27,3.55,5.39,9,9a53.52,53.52,0,0,0,21,8c24.8,3.92,37.2,5.87,48,6,8.95.1,14.78-.17,52-3,39.65-3,39.74-3.22,53-4,9-.53,23.66-1,53-2,23-.77,28-.82,36,0,6.09.63,8,1.15,30,4,15.43,2,22.35,2.76,30-1a30.65,30.65,0,0,0,11-9c3.12-4.14,4.27-8,6-14a87.08,87.08,0,0,0,3-16c1.08-11.19-.53-12.62,0-24,.38-8.08,1.51-14.08,3-22,2.51-13.34,3.61-12.7,5-22,1.48-9.93,2.72-18.91-1-29a33.93,33.93,0,0,0-7-12c-5.17-5.57-11.88-8.53-24-11-13.39-2.73-23.21-2.78-36-3-31.86-.54-25.72-1.15-39-1-16,.18-16.86,1-53,3-10.83.61-2.95.1-42,2-9.62.47-20.94,1-36,1-10.18,0-19.94-.3-32-3a112.54,112.54,0,0,1-11-3" transform="translate(0 0)"/><path class="cls-2" d="M2.46,25.16c1.68-2.72,3.91-4.36,11-8s10.55-5.42,15-7c11.27-4,24.48-6.34,41-8,14.73-1.48,25.68-2.58,41-2,10.87.41,5.42,1,41,5a220.63,220.63,0,0,1,33,7c6.72,2,13.2,4.19,16,10,1.83,3.81,1.38,7.71,1,11-.23,2-1.26,9.93-7,16s-13.68,7.38-18,8c-38.92,5.55-55,5-55,5-4.67-.16-23.18-2.11-60-6,0,0-4.94-.52-44-10-6.26-1.52-14.93-3.74-17-10C-1.18,31.16,2,25.86,2.46,25.16Z" transform="translate(0 0)"/><text class="cls-3" transform="translate(21.23 36.41)">สิ่งที่จำเป็นของธุรกิจ</text><path id="DiaVita_Club_копия" data-name="DiaVita Club копия" class="cls-2" d="M263.71,177.34a.78.78,0,0,0,.56.22H269q3.63,0,5.27-1.44a7.08,7.08,0,0,0,0-9.1q-1.65-1.46-5.27-1.45h-4.68a.76.76,0,0,0-.56.23.79.79,0,0,0-.23.57v10.44A.73.73,0,0,0,263.71,177.34Zm2.91-9.4h2.23a4.32,4.32,0,0,1,3.06.82,5.22,5.22,0,0,1,0,5.6,4.37,4.37,0,0,1-3.06.81h-2.23Zm11.06-.58a.94.94,0,0,0,.7.25h1a1,1,0,0,0,.71-.25,1,1,0,0,0,.25-.7v-.28a.89.89,0,0,0-.81-1h-1.2a1,1,0,0,0-.71.25,1,1,0,0,0-.25.71v.28a.94.94,0,0,0,.25.7Zm-.07,10.06a.49.49,0,0,0,.37.15h1.87a.5.5,0,0,0,.51-.51v-7.94a.5.5,0,0,0-.48-.5H278a.5.5,0,0,0-.5.48v8a.5.5,0,0,0,.15.37Zm8.26.31a5.09,5.09,0,0,0,3-.94V177a.5.5,0,0,0,.15.37.49.49,0,0,0,.37.15H291a.49.49,0,0,0,.5-.46v-5.22a3.22,3.22,0,0,0-1.2-2.76,5.22,5.22,0,0,0-3.2-.89q-4.55,0-4.55,2.4a.5.5,0,0,0,.5.5h1.27a1.26,1.26,0,0,0,1-.5,1.78,1.78,0,0,1,1.43-.5,2.09,2.09,0,0,1,1.43.39,1.83,1.83,0,0,1,.41,1.36H285.9a5,5,0,0,0-2.85.76,2.45,2.45,0,0,0-1.12,2.16A2.5,2.5,0,0,0,283,177a4.88,4.88,0,0,0,2.83.76Zm.22-4h2.56v1.31a4.57,4.57,0,0,1-2.49.76,1.51,1.51,0,0,1-1-.28,1,1,0,0,1-.13-1.35h0l.13-.13a1.4,1.4,0,0,1,.92-.28Zm9.81,2.93a1.26,1.26,0,0,0,1.19.84h1.2a1.26,1.26,0,0,0,1.19-.84l4.81-10.44a.62.62,0,0,0,0-.22.53.53,0,0,0-.16-.28.56.56,0,0,0-.45-.18h-1.83c-.44,0-.76.28-1,.79l-3.24,7.2-3.24-7.22a1,1,0,0,0-1-.79h-1.82a.56.56,0,0,0-.44.18.52.52,0,0,0-.16.3.47.47,0,0,0,.05.22Zm9.91-9.4a.94.94,0,0,0,.7.25h1a1,1,0,0,0,.71-.25,1,1,0,0,0,.25-.7v-.31a.89.89,0,0,0-.81-1h-1.2a1,1,0,0,0-.71.25,1,1,0,0,0-.25.71v.28a.94.94,0,0,0,.25.7Zm-.1,10.07a.5.5,0,0,0,.37.15h1.87a.5.5,0,0,0,.51-.51v-7.89a.5.5,0,0,0-.15-.37.49.49,0,0,0-.37-.15h-1.87a.5.5,0,0,0-.5.48v8a.5.5,0,0,0,.15.37Zm8.15-2.09a2,2,0,0,1-.41-1.32v-3h2.33a.5.5,0,0,0,.37-.15.49.49,0,0,0,.15-.37v-1a.49.49,0,0,0-.15-.37.5.5,0,0,0-.37-.15h-2.33v-2.77a.5.5,0,0,0-.48-.52h-1.89a.5.5,0,0,0-.5.5h0V174q0,3.76,3.59,3.76a11.94,11.94,0,0,0,2.23-.17.65.65,0,0,0,.38-.18.46.46,0,0,0,.15-.33v-.9a.49.49,0,0,0-.52-.46h-.34l-1.15.09a1.35,1.35,0,0,1-1-.49Zm7.76,2.44a5.08,5.08,0,0,0,3-.94V177a.5.5,0,0,0,.15.37.48.48,0,0,0,.37.15h1.62a.49.49,0,0,0,.5-.46h0v-5.14a3.22,3.22,0,0,0-1.2-2.76,5.22,5.22,0,0,0-3.2-.89q-4.55,0-4.55,2.4a.5.5,0,0,0,.48.5h1.28a1.26,1.26,0,0,0,1-.5,1.78,1.78,0,0,1,1.44-.5,2.09,2.09,0,0,1,1.43.39,1.84,1.84,0,0,1,.42,1.36h-2.8a5,5,0,0,0-2.85.76,2.45,2.45,0,0,0-1.12,2.16,2.5,2.5,0,0,0,1.12,2.17,4.88,4.88,0,0,0,2.85.73Zm.23-4h2.57v1.31a4.58,4.58,0,0,1-2.49.76,1.51,1.51,0,0,1-1-.28.93.93,0,0,1-.34-.74.91.91,0,0,1,.33-.73,1.38,1.38,0,0,1,.93-.28Z" transform="translate(0 0)"/><g class="cls-4"><text class="cls-5" transform="translate(54.62 155.14)">การสร้างทีมพาร์ทเนอร์ที่แข็งแกร่งและการ</text><text class="cls-5" transform="translate(54.62 177.7)"><tspan xml:space="preserve">     โปรโมทผลิตภัณฑ์ของ </tspan></text></g></svg>