<svg id="Слой_1" data-name="Слой 1" xmlns="http://www.w3.org/2000/svg" viewBox="0 0 255.52 309.46"><defs><style>.cls-1{fill:#82bc68;}.cls-2{fill:#1d8064;}</style></defs><title>groupleaf6</title><path class="cls-1" d="M16,259.37a24.42,24.42,0,0,1,8.05,9.79c-1.55-.62-4.2,1.92-6.2,2.37a16.41,16.41,0,0,1,8.08,2.57A54.67,54.67,0,0,1,28,288.35c-2.25-1.2-5.28.57-7.13.49a18.61,18.61,0,0,1,7.1,4.47,107,107,0,0,1-3.22,21.89,43.83,43.83,0,0,1-13.15-5.54c0-2.42,0-7.77.21-11.52,0,0-2.39,4.81-3.83,8.8A29.83,29.83,0,0,1-.55,294.7a30.37,30.37,0,0,1,4.7-9.86s-3.17,3.07-5.87,6.1c-4.32-17,4-36.06,4-36.06A26.92,26.92,0,0,1,16,259.37Z" transform="translate(2.96 -5.74)"/><path class="cls-2" d="M2.29,254.86c.36,8.68,6.15,28,21.14,58.56C23.42,313.43,10,279.77,2.29,254.86Z" transform="translate(2.96 -5.74)"/><path class="cls-1" d="M207.29,21A43,43,0,0,1,214,38.72c-1.82-1.82-6.28-.62-9-1.51a31.58,31.58,0,0,1,9.52,8.86A68.24,68.24,0,0,1,211.56,65c-2.47-3.08-7.13-3.05-9.52-4.48A36.17,36.17,0,0,1,209.6,71a110.49,110.49,0,0,1-12.82,24.52,85.75,85.75,0,0,1-15-16.1c.93-3,3-9.54,4.81-13.93a93.86,93.86,0,0,0-8.47,8.06,50.43,50.43,0,0,1-6.34-21.05,29.26,29.26,0,0,1,10-8.76s-5.35,1.5-10.08,3.29c1.08-23.95,19.43-41.31,19.43-41.31A52,52,0,0,1,207.29,21Z" transform="translate(2.96 -5.74)"/><path class="cls-2" d="M191.12,5.76c-2.93,10.88-3,38.65,4.67,86.7C195.77,92.48,191.48,41.75,191.12,5.76Z" transform="translate(2.96 -5.74)"/><path class="cls-1" d="M200.2,193a31.1,31.1,0,0,1,13.33-3.09c-1.5,1.1-1.05,4.42-1.94,6.33a22.82,22.82,0,0,1,7.28-6,49.31,49.31,0,0,1,13.27,3.9c-2.44,1.48-2.87,4.81-4.12,6.4a26.14,26.14,0,0,1,8.26-4.38,79.84,79.84,0,0,1,16.29,11.5,62,62,0,0,1-13,9.22c-2-.94-6.54-3.09-9.51-4.79a67.83,67.83,0,0,0,5,6.84,36.44,36.44,0,0,1-15.64,2.52,21.14,21.14,0,0,1-5.31-8s.56,4,1.39,7.54c-17-3.08-27.72-17.89-27.72-17.89A37.59,37.59,0,0,1,200.2,193Z" transform="translate(2.96 -5.74)"/><path class="cls-2" d="M187.72,203.13c7.52,3.15,27.4,5.83,62.56,5C250.28,208.14,213.54,206.33,187.72,203.13Z" transform="translate(2.96 -5.74)"/></svg>