<svg id="Слой_1" data-name="Слой 1" xmlns="http://www.w3.org/2000/svg" viewBox="0 0 515 331.5"><defs><style>.cls-1,.cls-6{fill:none;}.cls-1,.cls-2,.cls-3,.cls-4,.cls-6{stroke:#000;stroke-linecap:round;stroke-linejoin:round;}.cls-1{stroke-width:5px;}.cls-2{fill:#7c7969;}.cls-2,.cls-3,.cls-4,.cls-6{stroke-width:3px;}.cls-3{fill:#fff;}.cls-4{fill:#bcbcbc;}.cls-5{opacity:0.2;isolation:isolate;}.cls-7{font-size:28px;font-family:Tahoma, Tahoma;}</style></defs><title>canvas-3</title><polyline class="cls-1" points="47 43 256.9 6.5 467 43"/><path class="cls-2" d="M9,58.5H506a7.55,7.55,0,0,1,7.5,7.5h0a7.55,7.55,0,0,1-7.5,7.5H9A7.55,7.55,0,0,1,1.5,66h0A7.55,7.55,0,0,1,9,58.5Z" transform="translate(0 -30.5)"/><rect class="cls-3" x="15" y="43" width="484" height="272"/><path class="cls-2" d="M9,345.5H506a7.55,7.55,0,0,1,7.5,7.5h0a7.55,7.55,0,0,1-7.5,7.5H9A7.55,7.55,0,0,1,1.5,353h0A7.55,7.55,0,0,1,9,345.5Z" transform="translate(0 -30.5)"/><circle class="cls-4" cx="256.9" cy="9.5" r="8"/><path class="cls-5" d="M8.5,352h497a2.48,2.48,0,0,1,2.5,2.5h0a2.48,2.48,0,0,1-2.5,2.5H8.5A2.48,2.48,0,0,1,6,354.5H6A2.48,2.48,0,0,1,8.5,352Z" transform="translate(0 -30.5)"/><path class="cls-5" d="M9,65H506a2.48,2.48,0,0,1,2.5,2.5h0A2.48,2.48,0,0,1,506,70H9a2.48,2.48,0,0,1-2.5-2.5h0A2.48,2.48,0,0,1,9,65Z" transform="translate(0 -30.5)"/><line class="cls-6" x1="251.2" y1="3.9" x2="262.5" y2="15.3"/><line class="cls-6" x1="262.7" y1="3.9" x2="251.2" y2="15.1"/><text class="cls-7" transform="translate(41.21 97.5)">คนแรก - เก็บรวบรวมข้อมูลต่าง ๆ ไว้กับ<tspan x="-3.88" y="33.6">ตนเอง และทำงานมีประสิทธิภาพน้อยลง</tspan><tspan x="33.96" y="67.2">คนแรกกลัวที่จะแบ่งปันข้อมูล เขา</tspan><tspan x="-1.39" y="100.8">จึงสูญเสียโอกาสในการทำเงิน เขากลัวว</tspan><tspan x="-5.78" y="134.4">่าถ้าคนอื่น ๆ รู้เกี่ยวกับโอกาสนั้น เขาจะท</tspan><tspan x="138.11" y="168">ำเงินได้น้อยลง</tspan></text></svg>