<svg id="Слой_1" data-name="Слой 1" xmlns="http://www.w3.org/2000/svg" viewBox="0 0 14 12.68"><defs><style>.cls-1{opacity:0.5;}</style></defs><title>calendar</title><g class="cls-1"><path d="M261.92,250.29h-1.33v-.66a.21.21,0,0,0-.18-.21.21.21,0,0,0-.23.2v.67H258.4v-.66a.21.21,0,0,0-.18-.21.21.21,0,0,0-.23.2v.67h-1.78v-.66a.21.21,0,0,0-.18-.21.21.21,0,0,0-.23.2v.67H254v-.66a.21.21,0,0,0-.18-.21.21.21,0,0,0-.23.2v.67h-1.78v-.66a.21.21,0,0,0-.18-.21.21.21,0,0,0-.23.2v.67h-1.33a1.08,1.08,0,0,0-1.08,1.08V261a1.08,1.08,0,0,0,1.08,1.08h11.84A1.08,1.08,0,0,0,263,261v-9.64A1.08,1.08,0,0,0,261.92,250.29Zm.67,10.73a.67.67,0,0,1-.67.67H250.08a.67.67,0,0,1-.67-.67v-9.64a.67.67,0,0,1,.67-.67h1.33v.66a.21.21,0,0,0,.18.21.21.21,0,0,0,.23-.2v-.67h1.78v.66a.21.21,0,0,0,.18.21.21.21,0,0,0,.23-.2v-.67h1.78v.66a.21.21,0,0,0,.18.21.21.21,0,0,0,.23-.2v-.67H258v.66a.21.21,0,0,0,.18.21.21.21,0,0,0,.23-.2v-.67h1.78v.66a.21.21,0,0,0,.18.21.21.21,0,0,0,.23-.2v-.67h1.33a.67.67,0,0,1,.67.67Z" transform="translate(-249 -249.41)"/><path d="M261.92,252.48H250.09a.21.21,0,0,0-.21.18.21.21,0,0,0,.2.23h11.83a.21.21,0,0,0,.21-.18A.21.21,0,0,0,261.92,252.48Z" transform="translate(-249 -249.41)"/><path d="M259.58,255l-4.29,4.29a.23.23,0,0,1-.33,0l-2.1-2.1a.21.21,0,0,0-.29.29l2.1,2.1a.64.64,0,0,0,.91,0l4.29-4.29a.21.21,0,1,0-.29-.29Z" transform="translate(-249 -249.41)"/></g></svg>