<svg id="Слой_1" data-name="Слой 1" xmlns="http://www.w3.org/2000/svg" viewBox="0 0 13 13"><defs><style>.cls-1{opacity:0.5;}</style></defs><title>clock</title><g class="cls-1"><path d="M256.49,249.41a6.5,6.5,0,1,0,6.5,6.5A6.51,6.51,0,0,0,256.49,249.41Zm0,12.57a6.07,6.07,0,1,1,6.07-6.07A6.07,6.07,0,0,1,256.49,262Z" transform="translate(-249.99 -249.41)"/><path d="M256.49,250.73a.22.22,0,0,0-.22.22v5H253a.22.22,0,0,0,0,.43h3.47a.22.22,0,0,0,.22-.22v-5.2A.22.22,0,0,0,256.49,250.73Z" transform="translate(-249.99 -249.41)"/></g></svg>