<svg id="Слой_1" data-name="Слой 1" xmlns="http://www.w3.org/2000/svg" viewBox="0 0 15 13.83"><defs><style>.cls-1{opacity:0.5;}.cls-2{opacity:0.8;}</style></defs><title>group</title><g class="cls-1"><g class="cls-2"><path d="M260.34,256.32a4.07,4.07,0,1,0-5.06-6.36,2,2,0,0,1,.86.24,3.33,3.33,0,0,1,1.76-.5,3.36,3.36,0,0,1,1.88,6.15,2.1,2.1,0,0,1-.4,1.06,5,5,0,0,1,3.92,4.29h.7A6.23,6.23,0,0,0,260.34,256.32Z" transform="translate(-249 -249)"/></g><g class="cls-2"><path d="M257.55,257.95a4.07,4.07,0,1,0-4.88,0,6.23,6.23,0,0,0-3.66,4.88h.7a5.5,5.5,0,0,1,10.8,0h.7a6.23,6.23,0,0,0-3.66-4.88Zm-2.44.11a3.36,3.36,0,1,1,3.36-3.36,3.37,3.37,0,0,1-3.36,3.36Z" transform="translate(-249 -249)"/></g></g></svg>