<svg id="Слой_1" data-name="Слой 1" xmlns="http://www.w3.org/2000/svg" viewBox="0 0 40.01 38.3"><defs><style>.cls-1{fill:#7db5ba;}</style></defs><title>home</title><path class="cls-1" d="M34.17,38.29h-10a.83.83,0,0,1-.83-.83h0V26.64H16.7V37.45a.83.83,0,0,1-.83.83h-10S5,38,5,37.5V20.83A.77.77,0,0,1,5.71,20h.08a.85.85,0,0,1,.84.83V36.66H15V25.84a.83.83,0,0,1,.83-.83h8.35a.83.83,0,0,1,.83.83h0V36.66h8.31v-15a.86.86,0,0,1,.85-.83.76.76,0,0,1,.78.83V37.5C35,38,34.17,38.29,34.17,38.29Zm5-17.45a.83.83,0,0,1-.59-.24L20,2,1.42,20.59A.83.83,0,0,1,.24,19.41L19.41.24a.83.83,0,0,1,1.17,0h0L39.76,19.41a.83.83,0,0,1-.59,1.42ZM31.68,8.21V3.34H26.82a.84.84,0,0,1-.85-.8.82.82,0,0,1,.81-.83H32.5a.82.82,0,0,1,.82.82V8.24a.82.82,0,0,1-.82.82h0A.84.84,0,0,1,31.68,8.21Z" transform="translate(0 0.01)"/></svg>