<svg id="Слой_1" data-name="Слой 1" xmlns="http://www.w3.org/2000/svg" viewBox="0 0 40 29.09"><defs><style>.cls-1{fill:#7db5ba;}</style></defs><title>mail</title><path class="cls-1" d="M39.09,0H.91A.91.91,0,0,0,0,.91H0V28.18a.91.91,0,0,0,.91.91H39.09a.91.91,0,0,0,.91-.91h0V.91A.91.91,0,0,0,39.09,0Zm-.91,25.07L26.92,13.81,25.63,15.1,37.81,27.27H2.19L14.37,15.1l-1.29-1.29L1.82,25.07V1.82H38.18Z" transform="translate(0)"/><path class="cls-1" d="M36.34,1.82,20,18.16,3.66,1.82H1.82v.73L19.36,20.09a.91.91,0,0,0,1.29,0h0L38.18,2.55V1.82Z" transform="translate(0)"/></svg>