<svg id="Слой_1" data-name="Слой 1" xmlns="http://www.w3.org/2000/svg" viewBox="0 0 21 21"><defs><style>.cls-1,.cls-3{opacity:0.7;}.cls-2{fill:#7db5ba;stroke-width:0.75px;}.cls-2,.cls-3{stroke:#7db5ba;stroke-miterlimit:10;}.cls-3{fill:none;isolation:isolate;}</style></defs><title>phone</title><g class="cls-1"><path class="cls-2" d="M14.06,16.39A5.11,5.11,0,0,1,12.31,16,14.54,14.54,0,0,1,4.87,8.58c-.49-1.31-.5-2.39,0-2.88l.22-.23a2.34,2.34,0,0,1,1.63-1,2,2,0,0,1,1.37.88c1.36,1.69.75,2.29,0,3L8,8.5c-.12.12-.34.65,1.7,2.69a11.35,11.35,0,0,0,1.69,1.45c.29.19.8.47,1,.26l.13-.13c.7-.71,1.3-1.32,3,0a2,2,0,0,1,.88,1.37,2.32,2.32,0,0,1-1,1.63l-.22.22A1.56,1.56,0,0,1,14.06,16.39ZM6.67,4.9c-.48,0-.91.45-1.29.86L5.15,6c-.37.37-.33,1.33.1,2.45a14.15,14.15,0,0,0,7.2,7.2c1.12.42,2.09.46,2.45.09l.23-.22c.41-.39.88-.83.86-1.32a1.62,1.62,0,0,0-.73-1.08c-1.41-1.13-1.8-.73-2.45-.07l-.13.13c-.31.31-.82.24-1.51-.2A11.73,11.73,0,0,1,9.42,11.5h0C7.73,9.81,7.19,8.77,7.72,8.24l.13-.13c.66-.65,1.06-1-.07-2.45A1.62,1.62,0,0,0,6.7,4.93Z"/></g><circle class="cls-3" cx="10.5" cy="10.5" r="10"/></svg>