<svg id="Слой_1" data-name="Слой 1" xmlns="http://www.w3.org/2000/svg" viewBox="0 0 21 21"><defs><style>.cls-1{fill:none;stroke:#7db5ba;stroke-linecap:round;stroke-linejoin:round;}</style></defs><title>tw</title><circle class="cls-1" cx="10.5" cy="10.5" r="10"/><path class="cls-1" d="M15.16,9v.3a6.48,6.48,0,0,1-10,5.46,4.6,4.6,0,0,0,3.37-.94A2.28,2.28,0,0,1,6.4,12.19a2.29,2.29,0,0,0,1,0A2.28,2.28,0,0,1,5.57,10h0a2.27,2.27,0,0,0,1,.28,2.28,2.28,0,0,1-.7-3,6.47,6.47,0,0,0,4.8,2.26,2.28,2.28,0,0,1,3.88-2.08A4.55,4.55,0,0,0,16,6.87a2.29,2.29,0,0,1-1,1.26,4.53,4.53,0,0,0,1.31-.36A4.58,4.58,0,0,1,15.16,9Z"/></svg>