<svg id="Слой_1" data-name="Слой 1" xmlns="http://www.w3.org/2000/svg" viewBox="0 0 40.01 40.31"><defs><style>.cls-1{fill:#7db5ba;}</style></defs><title>wrench</title><path class="cls-1" d="M38.75,3.67,36.33,1.25A4.42,4.42,0,0,0,30.4,1L26.15,4.69a.69.69,0,0,0-.14.16l-4.14,6.9-2.66.89a.68.68,0,0,0-.27,1.13L26.19,21a.68.68,0,0,0,.48.2h.16a.68.68,0,0,0,.49-.45l.89-2.66,7-4.23a.68.68,0,0,0,.16-.14L39,9.59A4.43,4.43,0,0,0,38.75,3.67Zm-.82,5L34.4,12.76l-7.12,4.3a.68.68,0,0,0-.29.37l-.62,1.85-1.63-1.63h0l-2.42-2.42h0L20.69,13.6l1.85-.6a.68.68,0,0,0,.37-.3l4.21-7,4.17-3.62a3,3,0,0,1,4.07.14l2.42,2.42a3,3,0,0,1,.15,4.06Z" transform="translate(0 0.02)"/><path class="cls-1" d="M36.81,27.45a7.52,7.52,0,0,0-7.63-1.84L14.66,11.09A7.52,7.52,0,0,0,4.77,1.77a.68.68,0,0,0-.23,1.12L8.89,7.24,6,10.14,1.64,5.8A.68.68,0,0,0,.52,6a7.52,7.52,0,0,0,9.31,9.89l5.43,5.43L8.5,28.11l-4.3,2.4a.68.68,0,0,0-.28.29L2,34.67a.68.68,0,0,0,.13.79l2.42,2.42a.68.68,0,0,0,.79.13L9.2,36.08a.68.68,0,0,0,.29-.28l2.4-4.3,6.76-6.76,5.71,5.71a7.52,7.52,0,0,0,9.89,9.32.68.68,0,0,0,.23-1.12L30.13,34.3,33,31.4l4.35,4.35a.68.68,0,0,0,1.12-.23A7.52,7.52,0,0,0,36.81,27.45Zm-26,3.15a.68.68,0,0,0-.11.15L8.35,35,5.11,36.57,3.39,34.85,5,31.61l4.2-2.35a.68.68,0,0,0,.15-.11l6.83-6.83,1.45,1.45ZM37.53,34l-4-4a.68.68,0,0,0-1,0l0,0-3.86,3.86a.68.68,0,0,0,0,1l0,0,4,4a6.15,6.15,0,0,1-6.93-8.28.68.68,0,0,0-.15-.73l-15.1-15.2a.68.68,0,0,0-.73-.15A6.15,6.15,0,0,1,1.48,7.57l4,4a.68.68,0,0,0,1,0l0,0,3.86-3.86a.68.68,0,0,0,0-1l0,0-4-4A6.15,6.15,0,0,1,13.24,11a.68.68,0,0,0,.15.73L28.52,26.88a.68.68,0,0,0,.73.15,6.15,6.15,0,0,1,8.28,7Z" transform="translate(0 0.02)"/></svg>