<svg id="Слой_1" data-name="Слой 1" xmlns="http://www.w3.org/2000/svg" xmlns:xlink="http://www.w3.org/1999/xlink" viewBox="0 0 797 500"><defs><style>.cls-1,.cls-19{fill:none;}.cls-2{fill:#4ba56b;}.cls-3{fill:#978a6a;}.cls-4{fill:#5a7f65;}.cls-5{fill:#64c687;}.cls-6{fill:#c3a980;}.cls-7{opacity:0.88;}.cls-8{clip-path:url(#clip-path);}.cls-9{fill:#821b1b;}.cls-10{fill:#9e3b2a;}.cls-11{fill:#8e472b;}.cls-12{fill:#802d20;}.cls-13{fill:#932a28;}.cls-14{fill:#85291b;}.cls-15{fill:#975035;}.cls-16{opacity:0.1;}.cls-16,.cls-17{isolation:isolate;}.cls-17{opacity:0.2;}.cls-18{fill:#d8cec5;stroke-linecap:round;stroke-linejoin:round;}.cls-18,.cls-19{stroke:#000;stroke-width:2px;}.cls-19{stroke-miterlimit:10;}</style><clipPath id="clip-path"><polygon class="cls-1" points="75.49 189.08 22.75 160.02 22.33 339.48 75.11 309.37 75.49 189.08"/></clipPath></defs><title>biggreen</title><rect class="cls-2" x="71.91" y="88.3" width="657.44" height="320.9"/><polygon class="cls-3" points="797 500 0 500 82 400 715 400 797 500"/><polygon class="cls-4" points="0 0 797 0 715 100 82 100 0 0"/><polygon class="cls-5" points="82 400 0 500 0 0 84.05 100 82 400"/><polygon class="cls-5" points="715 100 797 0 797 500 715 400 715 100"/><g id="Слой_2" data-name="Слой 2"><g id="Слой_1-2" data-name="Слой 1-2"><polygon class="cls-6" points="75.49 189.08 22.75 160.02 22.34 339.48 75.11 309.37 75.49 189.08"/><g class="cls-7"><g class="cls-8"><path class="cls-9" d="M38,157.42c0,1-.62,1.45-1.4,1L21,148.82a4.09,4.09,0,0,1-1.74-3.14v-4.82c0-1.14.79-1.55,1.74-.91l15.58,10.42a3.67,3.67,0,0,1,1.4,2.77Z"/><path class="cls-10" d="M53.82,167.34c0,.9-.49,1.33-1.11,1L40.5,160.8a3.4,3.4,0,0,1-1.35-2.65v-4.24c0-1,.61-1.41,1.35-.92l12.21,8.16a3.11,3.11,0,0,1,1.11,2.37Z"/><path class="cls-10" d="M66.55,175.33c0,.81-.4,1.23-.9.92l-9.81-6a2.92,2.92,0,0,1-1.07-2.28v-3.76c0-.9.48-1.3,1.07-.91l9.82,6.56a2.73,2.73,0,0,1,.9,2.08Z"/><path class="cls-10" d="M77,181.88c0,.74-.33,1.14-.74.89l-8.09-5a2.55,2.55,0,0,1-.87-2v-3.41c0-.79.4-1.19.87-.88l8.07,5.39a2.5,2.5,0,0,1,.74,1.84Z"/><path class="cls-10" d="M85.75,187.35c0,.68-.28,1.06-.63.85l-6.74-4.14a2.31,2.31,0,0,1-.73-1.78v-3.11c0-.74.33-1.12.73-.85l6.72,4.51a2.21,2.21,0,0,1,.63,1.65Z"/><path class="cls-10" d="M28.9,161.3c0,1.08-.7,1.58-1.58,1.08L9.58,152.59a4.21,4.21,0,0,1-2-3.32v-5.16c0-1.23.91-1.68,2-1l17.73,10.76a3.73,3.73,0,0,1,1.58,2.9Z"/><path class="cls-10" d="M46.66,171.33c0,1-.55,1.42-1.23,1l-13.68-7.55a3.44,3.44,0,0,1-1.52-2.77v-4.5c0-1.07.68-1.52,1.52-1l13.68,8.3a3.11,3.11,0,0,1,1.23,2.47Z"/><path class="cls-11" d="M60.77,179.3c0,.85-.44,1.3-1,1l-10.87-6a2.91,2.91,0,0,1-1.19-2.37v-4c0-.95.54-1.38,1.19-1l10.87,6.6a2.72,2.72,0,0,1,1,2.15Z"/><path class="cls-12" d="M72.23,185.77c0,.79-.36,1.19-.81,1l-8.85-4.88a2.54,2.54,0,0,1-1-2.07v-3.56c0-.85.43-1.27,1-1l8.85,5.37a2.41,2.41,0,0,1,.81,1.89Z"/><path class="cls-10" d="M81.74,191.14c0,.71-.3,1.12-.68.91L73.72,188a2.26,2.26,0,0,1-.79-1.83v-3.24c0-.77.36-1.19.79-.91l7.34,4.45a2.12,2.12,0,0,1,.68,1.7Z"/><path class="cls-10" d="M38,175.44c0,1-.62,1.53-1.4,1.15L21,168.94A3.52,3.52,0,0,1,19.25,166V161.2c0-1.14.79-1.64,1.74-1.12l15.58,8.49a3.14,3.14,0,0,1,1.4,2.59Z"/><path class="cls-10" d="M53.82,183.4c0,.9-.49,1.39-1.11,1.09l-12.21-6A3,3,0,0,1,39.16,176v-4.24c0-1,.61-1.49,1.35-1.08l12.21,6.65a2.73,2.73,0,0,1,1.11,2.24Z"/><path class="cls-10" d="M66.55,189.8c0,.81-.4,1.28-.9,1L55.85,186a2.54,2.54,0,0,1-1.07-2.15V180.1c0-.9.48-1.36,1.07-1l9.82,5.35a2.41,2.41,0,0,1,.9,2Z"/><path class="cls-10" d="M77,195.06c0,.74-.33,1.19-.74,1l-8.07-4a2.24,2.24,0,0,1-.87-1.89v-3.41c0-.79.4-1.25.87-1l8.07,4.4a2.2,2.2,0,0,1,.74,1.75Z"/><path class="cls-10" d="M85.75,199.45c0,.68-.28,1.1-.63.93l-6.74-3.31a2,2,0,0,1-.73-1.69v-3.1c0-.74.33-1.15.73-.94L85.11,195a2,2,0,0,1,.63,1.58Z"/><path class="cls-10" d="M28.9,180.44c0,1.08-.7,1.65-1.58,1.27L9.58,174.12a3.61,3.61,0,0,1-2-3.07v-5.16a1.27,1.27,0,0,1,2-1.25l17.74,8.56a3.22,3.22,0,0,1,1.58,2.71Z"/><path class="cls-13" d="M46.66,188.3c0,1-.55,1.49-1.23,1.19l-13.67-5.87A3,3,0,0,1,30.23,181v-4.5c0-1.07.68-1.58,1.52-1.19l13.68,6.6a2.73,2.73,0,0,1,1.23,2.32Z"/><path class="cls-10" d="M60.77,194.49c0,.85-.44,1.36-1,1.12L48.9,191a2.52,2.52,0,0,1-1.19-2.22v-4c0-.95.54-1.45,1.19-1.13l10.87,5.25a2.4,2.4,0,0,1,1,2Z"/><path class="cls-10" d="M72.23,199.55c0,.79-.36,1.25-.81,1.05l-8.85-3.79a2.21,2.21,0,0,1-1-1.95V191.3c0-.85.43-1.33,1-1.07l8.85,4.27a2.11,2.11,0,0,1,.81,1.8Z"/><path class="cls-12" d="M81.74,203.72c0,.71-.3,1.15-.68,1l-7.34-3.16a2,2,0,0,1-.79-1.73V196.6c0-.77.36-1.22.79-1l7.34,3.56a1.86,1.86,0,0,1,.68,1.61Z"/><path class="cls-9" d="M38,193.44c0,1-.62,1.61-1.4,1.32L21,189.09a3.05,3.05,0,0,1-1.74-2.71v-4.84c0-1.14.79-1.74,1.74-1.34l15.58,6.56a2.72,2.72,0,0,1,1.4,2.42Z"/><path class="cls-11" d="M53.82,199.46c0,.9-.49,1.45-1.11,1.23L40.5,196.2a2.55,2.55,0,0,1-1.35-2.31v-4.22c0-1,.61-1.58,1.35-1.25l12.21,5.14a2.36,2.36,0,0,1,1.11,2.1Z"/><path class="cls-10" d="M66.55,204.28c0,.81-.4,1.32-.9,1.14l-9.81-3.6a2.21,2.21,0,0,1-1.07-2V196c0-.9.48-1.42,1.07-1.19L65.66,199a2.09,2.09,0,0,1,.9,1.85Z"/><path class="cls-10" d="M77,208.24c0,.74-.33,1.22-.74,1.07l-8.09-3a2,2,0,0,1-.87-1.78v-3.41c0-.79.4-1.3.87-1.1l8.07,3.4a1.93,1.93,0,0,1,.74,1.66Z"/><path class="cls-10" d="M85.75,211.56c0,.68-.28,1.13-.63,1l-6.74-2.47a1.76,1.76,0,0,1-.73-1.58v-3.1c0-.74.33-1.19.73-1l6.72,2.84a1.72,1.72,0,0,1,.63,1.49Z"/><path class="cls-10" d="M28.9,199.58c0,1.08-.7,1.74-1.58,1.47l-17.74-5.4a3.09,3.09,0,0,1-2-2.82v-5.16a1.42,1.42,0,0,1,2-1.5l17.73,6.37A2.78,2.78,0,0,1,28.89,195Z"/><path class="cls-10" d="M46.66,205.22c0,1-.55,1.56-1.23,1.35L31.75,202.4A2.56,2.56,0,0,1,30.23,200v-4.5c0-1.07.68-1.68,1.52-1.39L45.43,199a2.36,2.36,0,0,1,1.23,2.17Z"/><path class="cls-10" d="M60.77,209.68c0,.85-.44,1.41-1,1.25L48.9,207.62a2.19,2.19,0,0,1-1.19-2.08v-4c0-.95.54-1.52,1.19-1.28l10.87,3.9a2.07,2.07,0,0,1,1,1.9Z"/><path class="cls-11" d="M72.23,213.32c0,.79-.36,1.29-.81,1.15l-8.85-2.69a1.93,1.93,0,0,1-1-1.83V206.4c0-.85.43-1.38,1-1.19l8.85,3.16a1.85,1.85,0,0,1,.81,1.69Z"/><path class="cls-10" d="M81.74,216.34c0,.71-.3,1.19-.68,1.08l-7.34-2.23c-.43-.13-.79-.87-.79-1.63v-3.24c0-.77.36-1.27.79-1.11l7.34,2.63c.4.13.68.82.68,1.53Z"/><path class="cls-10" d="M38,211.47c0,1-.62,1.68-1.4,1.49L21,209.19a2.6,2.6,0,0,1-1.74-2.49v-4.82c0-1.14.79-1.83,1.74-1.55L36.58,205A2.34,2.34,0,0,1,38,207.2Z"/><path class="cls-10" d="M53.82,215.51c0,.9-.49,1.51-1.11,1.36l-12.21-3a2.2,2.2,0,0,1-1.35-2.15v-4.24c0-1,.61-1.64,1.35-1.42l12.21,3.63a2.06,2.06,0,0,1,1.11,2Z"/><path class="cls-10" d="M66.55,218.74c0,.81-.4,1.38-.9,1.25l-9.82-2.37a1.91,1.91,0,0,1-1.07-1.88V212c0-.9.48-1.48,1.07-1.3l9.82,2.93a1.82,1.82,0,0,1,.9,1.74Z"/><path class="cls-10" d="M77,221.43c0,.74-.33,1.26-.74,1.16l-8.09-2c-.48-.12-.87-.87-.87-1.68v-3.41c0-.79.4-1.35.87-1.19l8.07,2.42c.4.12.74.82.74,1.58Z"/><path class="cls-10" d="M85.75,223.66c0,.68-.28,1.16-.63,1.08l-6.74-1.64c-.4-.1-.73-.79-.73-1.51v-3.1c0-.74.33-1.24.73-1.12l6.72,2c.35.1.63.74.63,1.42Z"/><path class="cls-10" d="M28.9,218.74c0,1.08-.7,1.82-1.58,1.66L9.58,217.2a2.65,2.65,0,0,1-2-2.58v-5.18a1.61,1.61,0,0,1,2-1.75l17.73,4.17a2.39,2.39,0,0,1,1.58,2.32Z"/><path class="cls-10" d="M46.66,222.16c0,1-.55,1.63-1.23,1.5l-13.68-2.47A2.2,2.2,0,0,1,30.23,219v-4.5c0-1.07.68-1.77,1.52-1.58l13.68,3.21a2,2,0,0,1,1.23,2Z"/><path class="cls-10" d="M60.77,224.88c0,.85-.44,1.47-1,1.37l-10.87-2a1.88,1.88,0,0,1-1.19-1.93v-4c0-.95.54-1.58,1.19-1.43l10.87,2.55a1.79,1.79,0,0,1,1,1.78Z"/><path class="cls-10" d="M72.23,227.1c0,.79-.36,1.34-.81,1.25l-8.85-1.58c-.53-.09-1-.86-1-1.71V221.5c0-.85.43-1.44,1-1.31l8.85,2.08c.45.11.81.82.81,1.58Z"/><path class="cls-9" d="M81.74,228.93c0,.71-.3,1.23-.68,1.16l-7.34-1.32c-.43-.08-.79-.77-.79-1.54V224c0-.77.36-1.31.79-1.21l7.34,1.73c.4.09.68.74.68,1.44Z"/><path class="cls-13" d="M38,229.49c0,1-.62,1.76-1.4,1.67L21,229.31A2.23,2.23,0,0,1,19.25,227v-4.82c0-1.14.79-1.93,1.74-1.77l15.58,2.7a2,2,0,0,1,1.4,2.08Z"/><path class="cls-10" d="M53.82,231.57c0,.9-.49,1.58-1.11,1.5L40.5,231.62a1.89,1.89,0,0,1-1.35-2v-4.24c0-1,.61-1.71,1.35-1.58l12.21,2.12a1.78,1.78,0,0,1,1.11,1.83Z"/><path class="cls-12" d="M66.55,233.24c0,.81-.4,1.43-.9,1.37l-9.81-1.17c-.59-.07-1.07-.85-1.07-1.75v-3.78c0-.9.48-1.54,1.07-1.44l9.82,1.7c.5.09.9.81.9,1.63Z"/><path class="cls-10" d="M77,234.61c0,.74-.33,1.3-.74,1.25l-8.09-1c-.48-.06-.87-.76-.87-1.58v-3.41c0-.79.4-1.4.87-1.31l8.07,1.4c.4.07.74.73.74,1.47Z"/><path class="cls-13" d="M85.75,235.75c0,.68-.28,1.19-.63,1.16l-6.75-.79c-.4,0-.73-.68-.73-1.42v-3.1c0-.74.33-1.28.73-1.21l6.75,1.19c.35.06.63.66.63,1.34Z"/><path class="cls-10" d="M28.9,237.87a1.67,1.67,0,0,1-1.58,1.86l-17.74-1a2.27,2.27,0,0,1-2-2.33v-5.14a1.83,1.83,0,0,1,2-2l17.73,2a2.05,2.05,0,0,1,1.58,2.12Z"/><path class="cls-10" d="M46.66,239.1c0,1-.55,1.69-1.23,1.65L31.75,240a1.89,1.89,0,0,1-1.52-2v-4.48c0-1.07.68-1.85,1.52-1.76l13.68,1.52a1.76,1.76,0,0,1,1.23,1.86Z"/><path class="cls-14" d="M60.77,240.1c0,.85-.44,1.52-1,1.49L48.9,241c-.66,0-1.19-.83-1.19-1.78v-4c0-.95.54-1.65,1.19-1.58l10.87,1.21c.55.06,1,.79,1,1.66Z"/><path class="cls-10" d="M72.23,240.89c0,.79-.36,1.38-.81,1.36l-8.85-.51c-.53,0-1-.74-1-1.58V236.6c0-.85.43-1.49,1-1.43l8.85,1c.45.05.81.72.81,1.49Z"/><path class="cls-10" d="M81.74,241.53c0,.71-.3,1.27-.68,1.24l-7.34-.42c-.43,0-.79-.67-.79-1.44v-3.24c0-.77.36-1.35.79-1.3l7.34.82c.4,0,.68.65.68,1.36Z"/><path class="cls-10" d="M38,247.51a1.67,1.67,0,0,1-1.4,1.84L21,249.42a1.92,1.92,0,0,1-1.74-2.06v-4.82a1.81,1.81,0,0,1,1.74-2l15.58.77a1.75,1.75,0,0,1,1.4,1.9Z"/><path class="cls-10" d="M53.82,247.61c0,.9-.49,1.64-1.11,1.64l-12.21.06c-.74,0-1.35-.79-1.35-1.81v-4.24c0-1,.61-1.79,1.35-1.75l12.21.61c.61,0,1.11.79,1.11,1.69Z"/><path class="cls-11" d="M66.55,247.72c0,.81-.4,1.47-.9,1.48l-9.82.05c-.59,0-1.07-.72-1.07-1.62v-3.78c0-.9.48-1.58,1.07-1.58l9.82.49c.5,0,.9.7.9,1.52Z"/><path class="cls-10" d="M77,247.8c0,.74-.33,1.34-.74,1.34l-8.09,0c-.48,0-.87-.65-.87-1.46v-3.41c0-.79.4-1.44.87-1.42l8.07.4c.4,0,.74.64.74,1.38Z"/><path class="cls-10" d="M85.75,247.86c0,.68-.28,1.23-.63,1.23l-6.75,0c-.4,0-.73-.59-.73-1.33v-3.1c0-.74.33-1.32.73-1.3l6.75.33c.35,0,.63.58.63,1.26Z"/><path class="cls-10" d="M28.9,257a2,2,0,0,1-1.58,2.05l-17.74,1.2a1.94,1.94,0,0,1-2-2.08V253a2.15,2.15,0,0,1,2-2.27l17.73-.22a1.78,1.78,0,0,1,1.58,1.93Z"/><path class="cls-10" d="M46.66,256c0,1-.55,1.76-1.23,1.81l-13.68.92c-.83.06-1.52-.76-1.52-1.83v-4.5a1.79,1.79,0,0,1,1.52-1.95l13.68-.17c.68,0,1.23.76,1.23,1.71Z"/><path class="cls-10" d="M60.77,255.27c0,.85-.44,1.58-1,1.61l-10.87.73c-.66,0-1.19-.68-1.19-1.63v-4c0-.95.54-1.72,1.19-1.72l10.87-.13c.55,0,1,.68,1,1.53Z"/><path class="cls-10" d="M72.23,254.65c0,.79-.36,1.43-.81,1.46l-8.85.6c-.53,0-1-.62-1-1.47v-3.56c0-.85.43-1.54,1-1.55l8.85-.11c.45,0,.81.62.81,1.39Z"/><path class="cls-10" d="M81.74,254.13c0,.71-.3,1.3-.68,1.33l-7.34.49c-.43,0-.79-.57-.79-1.34v-3.24c0-.79.36-1.4.79-1.4l7.34-.09c.4,0,.68.57.68,1.27Z"/><path class="cls-12" d="M38,265.52a1.93,1.93,0,0,1-1.4,2l-15.58,2a1.66,1.66,0,0,1-1.74-1.85v-4.82a2.12,2.12,0,0,1,1.74-2.2l15.58-1.16c.79-.06,1.4.72,1.4,1.73Z"/><path class="cls-10" d="M53.82,263.68c0,.9-.49,1.7-1.11,1.78L40.51,267c-.74.09-1.35-.64-1.35-1.64v-4.24a1.79,1.79,0,0,1,1.35-1.92l12.21-.91c.61,0,1.11.65,1.11,1.55Z"/><path class="cls-13" d="M66.55,262.2c0,.81-.4,1.53-.9,1.58L55.85,265c-.59.08-1.07-.59-1.07-1.48v-3.78c0-.9.48-1.66,1.07-1.7l9.82-.73c.5,0,.9.59.9,1.41Z"/><path class="cls-10" d="M77,261c0,.74-.33,1.38-.74,1.44l-8.09,1c-.48.06-.87-.54-.87-1.35v-3.42c0-.79.4-1.49.87-1.53l8.07-.6c.4,0,.74.55.74,1.29Z"/><path class="cls-10" d="M85.75,260c0,.68-.28,1.27-.63,1.31l-6.74.87c-.4.05-.73-.5-.73-1.24v-3.1c0-.74.33-1.36.73-1.39l6.72-.5c.35,0,.63.51.63,1.19Z"/><path class="cls-10" d="M28.9,276.15a2.26,2.26,0,0,1-1.58,2.25L9.58,281.79a1.69,1.69,0,0,1-2-1.83v-5.16a2.5,2.5,0,0,1,2-2.49l17.73-2.42c.87-.12,1.58.66,1.58,1.73Z"/><path class="cls-10" d="M46.66,273a2,2,0,0,1-1.23,2l-13.68,2.61c-.83.16-1.52-.57-1.52-1.64v-4.52a2.08,2.08,0,0,1,1.52-2.14l13.68-1.86c.68-.09,1.23.61,1.23,1.56Z"/><path class="cls-10" d="M60.77,270.47c0,.85-.44,1.63-1,1.74L48.9,274.28c-.66.13-1.19-.54-1.19-1.48v-4c0-.95.54-1.78,1.19-1.87l10.87-1.48c.55-.08,1,.56,1,1.41Z"/><path class="cls-10" d="M72.23,268.43c0,.79-.36,1.47-.81,1.56l-8.85,1.69c-.53.1-1-.5-1-1.35v-3.56c0-.85.43-1.58,1-1.67l8.85-1.19c.45-.06.81.52.81,1.29Z"/><path class="cls-10" d="M81.74,266.73c0,.71-.3,1.34-.68,1.41l-7.34,1.4c-.43.08-.79-.47-.79-1.24v-3.24c0-.79.36-1.44.79-1.5l7.34-1c.4-.05.68.48.68,1.19Z"/><path class="cls-10" d="M38,283.54a2.26,2.26,0,0,1-1.4,2.19l-15.58,4c-1,.24-1.74-.49-1.74-1.63V283.2A2.47,2.47,0,0,1,21,280.78l15.58-3.09c.79-.15,1.4.55,1.4,1.56Z"/><path class="cls-11" d="M53.82,279.73a2,2,0,0,1-1.11,1.91L40.5,284.74c-.74.19-1.35-.47-1.35-1.48V279a2.07,2.07,0,0,1,1.35-2.08l12.21-2.44c.61-.12,1.11.51,1.11,1.42Z"/><path class="cls-10" d="M66.55,276.68c0,.81-.4,1.58-.9,1.7l-9.81,2.48c-.59.15-1.07-.45-1.07-1.35v-3.78a1.81,1.81,0,0,1,1.07-1.83L65.67,272c.5-.1.9.48.9,1.3Z"/><path class="cls-9" d="M77,274.17c0,.74-.33,1.43-.74,1.53l-8.09,2c-.48.12-.87-.43-.87-1.24v-3.41c0-.79.4-1.54.87-1.64l8.07-1.58c.4-.08.74.45.74,1.19Z"/><path class="cls-10" d="M85.75,272.07c0,.68-.28,1.3-.63,1.39l-6.74,1.7c-.4.1-.73-.4-.73-1.15v-3.1c0-.74.33-1.4.73-1.48l6.72-1.34c.35-.07.63.43.63,1.11Z"/><path class="cls-10" d="M28.9,295.29a2.62,2.62,0,0,1-1.58,2.44L9.58,303.32a1.48,1.48,0,0,1-2-1.58v-5.17a2.93,2.93,0,0,1,2-2.74l17.73-4.61c.87-.23,1.58.46,1.58,1.54Z"/><path class="cls-10" d="M46.66,289.92A2.24,2.24,0,0,1,45.43,292l-13.68,4.3c-.83.26-1.52-.4-1.52-1.46v-4.48a2.42,2.42,0,0,1,1.52-2.33l13.68-3.56c.68-.18,1.23.45,1.23,1.4Z"/><path class="cls-10" d="M60.77,285.67a2,2,0,0,1-1,1.86L48.9,290.94c-.66.21-1.19-.4-1.19-1.34v-4a2.08,2.08,0,0,1,1.19-2l10.87-2.83c.55-.14,1,.43,1,1.29Z"/><path class="cls-10" d="M72.23,282.2a1.74,1.74,0,0,1-.81,1.66l-8.85,2.77c-.53.17-1-.4-1-1.23v-3.56a1.83,1.83,0,0,1,1-1.79l8.85-2.3c.45-.12.81.4.81,1.19Z"/><path class="cls-10" d="M81.74,279.33c0,.71-.3,1.38-.68,1.49l-7.34,2.31c-.43.14-.79-.4-.79-1.14v-3.24c0-.79.36-1.49.79-1.58l7.34-1.91c.4-.1.68.4.68,1.1Z"/><path class="cls-10" d="M38,301.56a2.64,2.64,0,0,1-1.4,2.37L21,309.8c-1,.36-1.74-.27-1.74-1.41v-4.83A2.88,2.88,0,0,1,21,300.93l15.58-5c.79-.25,1.4.37,1.4,1.38Z"/><path class="cls-10" d="M53.82,295.79a2.26,2.26,0,0,1-1.11,2.05L40.5,302.44c-.74.28-1.35-.31-1.35-1.31v-4.24a2.41,2.41,0,0,1,1.35-2.25l12.21-3.93c.61-.2,1.11.4,1.11,1.28Z"/><path class="cls-10" d="M66.55,291.15a2,2,0,0,1-.9,1.81l-9.81,3.68c-.59.22-1.07-.32-1.07-1.22v-3.78a2.12,2.12,0,0,1,1.07-2l9.82-3.16c.5-.16.9.37.9,1.19Z"/><path class="cls-10" d="M77,287.35a1.8,1.8,0,0,1-.74,1.62l-8.09,3c-.48.18-.87-.32-.87-1.13v-3.41a1.89,1.89,0,0,1,.87-1.74l8.07-2.6c.4-.13.74.36.74,1.1Z"/><path class="cls-13" d="M85.75,284.17c0,.68-.28,1.34-.63,1.47l-6.74,2.54c-.4.15-.73-.32-.73-1.06V284a1.73,1.73,0,0,1,.73-1.58l6.75-2.17c.35-.11.63.35.63,1Z"/><path class="cls-13" d="M28.9,314.44a3,3,0,0,1-1.58,2.64L9.58,324.85a1.32,1.32,0,0,1-2-1.34v-5.14a3.42,3.42,0,0,1,2-3l17.73-6.81c.87-.34,1.58.27,1.58,1.34Z"/><path class="cls-10" d="M46.66,306.87a2.58,2.58,0,0,1-1.23,2.27l-13.68,6c-.83.37-1.52-.2-1.52-1.27v-4.5a2.81,2.81,0,0,1,1.52-2.51l13.68-5.25c.68-.26,1.23.3,1.23,1.25Z"/><path class="cls-14" d="M60.77,300.86a2.25,2.25,0,0,1-1,2L48.9,307.58c-.66.29-1.19-.24-1.19-1.19v-4a2.42,2.42,0,0,1,1.19-2.17l10.87-4.18c.55-.21,1,.31,1,1.19Z"/><path class="cls-13" d="M72.23,296a2,2,0,0,1-.81,1.76l-8.85,3.88c-.53.23-1-.26-1-1.12v-3.56a2.11,2.11,0,0,1,1-1.91l8.85-3.4c.45-.17.81.32.81,1.09Z"/><path class="cls-10" d="M81.74,291.93a1.84,1.84,0,0,1-.68,1.58l-7.34,3.22c-.43.19-.79-.28-.79-1v-3.24a1.86,1.86,0,0,1,.79-1.7l7.34-2.81c.4-.15.68.31.68,1Z"/><path class="cls-10" d="M38,319.58a3,3,0,0,1-1.4,2.53L21,329.9c-1,.48-1.74-.06-1.74-1.19v-4.82A3.34,3.34,0,0,1,21,321l15.58-6.95c.79-.34,1.4.2,1.4,1.21Z"/><path class="cls-10" d="M53.82,311.85A2.59,2.59,0,0,1,52.71,314L40.5,320.14c-.74.37-1.35-.14-1.35-1.14v-4.24a2.79,2.79,0,0,1,1.35-2.42l12.21-5.42c.61-.27,1.11.24,1.11,1.14Z"/><path class="cls-10" d="M66.55,305.64a2.27,2.27,0,0,1-.9,1.92l-9.81,4.9c-.59.3-1.07-.19-1.07-1.08V307.6a2.41,2.41,0,0,1,1.07-2.1l9.82-4.38c.5-.22.9.26.9,1.07Z"/><path class="cls-10" d="M77,300.53a2.06,2.06,0,0,1-.74,1.72l-8.09,4c-.48.24-.87-.22-.87-1v-3.41a2.17,2.17,0,0,1,.87-1.85l8.07-3.6c.4-.19.74.27.74,1Z"/><path class="cls-10" d="M85.75,296.27a1.87,1.87,0,0,1-.63,1.55l-6.74,3.38c-.4.2-.73-.23-.73-1v-3.1a1.93,1.93,0,0,1,.73-1.66l6.72-3c.35-.15.63.27.63,1Z"/><path class="cls-10" d="M28.9,333.58a3.56,3.56,0,0,1-1.58,2.84l-17.74,10c-1.1.62-2,.13-2-1.1v-5.14a4,4,0,0,1,2-3.23l17.74-9c.87-.44,1.58.07,1.58,1.15Z"/><path class="cls-12" d="M46.66,323.81a3,3,0,0,1-1.23,2.42l-13.68,7.69c-.83.47-1.52,0-1.52-1.08v-4.5a3.26,3.26,0,0,1,1.52-2.7l13.68-6.94c.68-.35,1.23.15,1.23,1.1Z"/><path class="cls-10" d="M60.77,316.06a2.59,2.59,0,0,1-1,2.1L48.9,324.28c-.66.37-1.19-.09-1.19-1v-4a2.8,2.8,0,0,1,1.19-2.32l10.87-5.54c.55-.28,1,.19,1,1Z"/><path class="cls-10" d="M72.23,309.76a2.27,2.27,0,0,1-.81,1.86l-8.85,5c-.53.3-1-.15-1-1V312a2.42,2.42,0,0,1,1-2l8.85-4.49c.45-.23.81.21.81,1Z"/><path class="cls-14" d="M81.74,304.55a2.08,2.08,0,0,1-.68,1.66l-7.34,4.1c-.43.25-.79-.18-.79-.95v-3.24a2.12,2.12,0,0,1,.79-1.8l7.34-3.74c.4-.19.68.23.68.94Z"/><path class="cls-10" d="M38,337.59a3.49,3.49,0,0,1-1.4,2.7L21,350c-1,.6-1.74.16-1.74-1v-4.82A3.88,3.88,0,0,1,21,341.17l15.58-8.88c.79-.44,1.4,0,1.4,1Z"/><path class="cls-10" d="M53.82,327.88a3,3,0,0,1-1.11,2.33L40.5,337.85c-.74.46-1.35,0-1.35-1v-4.24A3.22,3.22,0,0,1,40.5,330l12.21-7c.61-.35,1.11.1,1.11,1Z"/><path class="cls-15" d="M66.55,320.12a2.6,2.6,0,0,1-.9,2l-9.81,6.13c-.59.37-1.07-.06-1.07-1v-3.79a2.78,2.78,0,0,1,1.07-2.23l9.82-5.6c.5-.28.9.15.9,1Z"/><path class="cls-10" d="M77,313.72a2.34,2.34,0,0,1-.74,1.81l-8.09,5c-.48.3-.87-.11-.87-.92v-3.41a2.53,2.53,0,0,1,.87-2l8.08-4.57c.4-.23.74.18.74.92Z"/><path class="cls-10" d="M85.75,308.37a2.12,2.12,0,0,1-.63,1.63l-6.74,4.22c-.4.25-.73-.14-.73-.88v-3.1a2.2,2.2,0,0,1,.73-1.75l6.72-3.85c.35-.2.63.19.63.87Z"/><path class="cls-10" d="M46.66,340.75a3.43,3.43,0,0,1-1.23,2.57l-13.68,9.38c-.83.57-1.52.18-1.52-.89v-4.5a3.77,3.77,0,0,1,1.52-2.89l13.68-8.64c.68-.43,1.23,0,1.23.95Z"/><path class="cls-10" d="M60.77,331.25a3,3,0,0,1-1,2.23L48.9,340.93c-.66.45-1.19.05-1.19-.89v-4a3.21,3.21,0,0,1,1.19-2.46l10.87-6.86c.55-.35,1,.07,1,.92Z"/><path class="cls-10" d="M72.23,323.53a2.66,2.66,0,0,1-.81,2l-8.85,6.05c-.53.36-1,0-1-.87v-3.56a2.77,2.77,0,0,1,1-2.14l8.85-5.59c.45-.28.81.11.81.89Z"/><path class="cls-10" d="M81.74,317.13a2.35,2.35,0,0,1-.68,1.75l-7.34,5.05c-.43.3-.79-.08-.79-.85v-3.24a2.43,2.43,0,0,1,.79-1.89l7.34-4.64c.4-.24.68.14.68.85Z"/></g></g><path class="cls-16" d="M65.16,268.37c0,.54-.27,1-.6,1.09s-.61-.34-.61-.89.27-1,.61-1.09S65.16,267.83,65.16,268.37Z"/><path class="cls-16" d="M48.58,247c0,.62-.35,1.12-.79,1.12s-.79-.51-.79-1.14.36-1.13.79-1.12S48.58,246.34,48.58,247Z"/><path class="cls-17" d="M27.11,234.45a.55.55,0,0,1-.48.61h0a.67.67,0,0,1-.53-.7c0-.36.24-.64.53-.61A.67.67,0,0,1,27.11,234.45Z"/><path class="cls-17" d="M57.41,300.31a.75.75,0,0,1-.34.67c-.19.08-.34-.09-.34-.4a.75.75,0,0,1,.34-.67C57.25,299.85,57.41,300,57.41,300.31Z"/><path class="cls-17" d="M49.92,212.57c0,.31-.17.51-.4.45a.68.68,0,0,1-.4-.66c0-.31.17-.51.4-.45A.68.68,0,0,1,49.92,212.57Z"/><path class="cls-17" d="M70.81,191c0,.26-.12.4-.27.33a.73.73,0,0,1-.27-.61c0-.26.12-.4.27-.33A.74.74,0,0,1,70.81,191Z"/><path class="cls-18" d="M19.55,154.29V342.91l57.34-33V187.26ZM74.23,307.91,25,334.64V162.54l49.23,26.73Z"/><line class="cls-19" x1="24.88" y1="162.39" x2="19.74" y2="154.09"/><line class="cls-19" x1="74.31" y1="189.28" x2="77.08" y2="187.3"/><line class="cls-19" x1="74.31" y1="307.91" x2="77.08" y2="309.89"/><line class="cls-19" x1="24.88" y1="334.8" x2="19.74" y2="342.71"/></g></g></svg>