<svg id="Слой_1" data-name="Слой 1" xmlns="http://www.w3.org/2000/svg" viewBox="0 0 797 500"><defs><style>.cls-1{fill:#ffde5a;}.cls-2{fill:#b6a784;}.cls-3{fill:#948753;}.cls-4{fill:#ffe47a;}.cls-5{fill:#c0f5fc;}.cls-6{fill:#6d5947;stroke:#000;stroke-miterlimit:10;stroke-width:3px;}</style></defs><title>bigyellow</title><rect class="cls-1" x="71.91" y="88.3" width="657.44" height="320.9"/><polygon class="cls-2" points="797 500 0 500 82 400 715 400 797 500"/><polygon class="cls-3" points="0 0 797 0 715 100 82 100 0 0"/><polygon class="cls-4" points="82 400 0 500 0 0 84.05 100 82 400"/><polygon class="cls-4" points="715 100 797 0 797 500 715 400 715 100"/><polygon class="cls-5" points="789.67 433.57 720.76 372.48 720.76 123.45 789.67 62.37 789.67 433.57"/><path class="cls-6" d="M716.84,123.45v250.6l78.31,70.48V53Zm8.22,2.35L786.93,71V425.74l-61.87-54.82Z"/></svg>