<svg id="Слой_1" data-name="Слой 1" xmlns="http://www.w3.org/2000/svg" xmlns:xlink="http://www.w3.org/1999/xlink" viewBox="0 0 648.8 520"><defs><style>.cls-1,.cls-19{fill:none;}.cls-2{fill:#4ba56b;}.cls-3{fill:#978a6a;}.cls-4{fill:#5a7f65;}.cls-5{fill:#64c687;}.cls-6{fill:#c3a980;}.cls-7{opacity:0.88;}.cls-8{clip-path:url(#clip-path);}.cls-9{fill:#821b1b;}.cls-10{fill:#9e3b2a;}.cls-11{fill:#8e472b;}.cls-12{fill:#802d20;}.cls-13{fill:#932a28;}.cls-14{fill:#85291b;}.cls-15{fill:#975035;}.cls-16{opacity:0.1;}.cls-16,.cls-17{isolation:isolate;}.cls-17{opacity:0.2;}.cls-18{fill:#d8cec5;stroke-linecap:round;stroke-linejoin:round;}.cls-18,.cls-19{stroke:#000;stroke-width:2px;}.cls-19{stroke-miterlimit:10;}</style><clipPath id="clip-path"><polygon class="cls-1" points="61.91 198.62 16.31 173.5 15.95 328.67 61.58 302.63 61.91 198.62"/></clipPath></defs><title>middlegreen</title><rect class="cls-2" x="58.54" y="91.83" width="535.19" height="333.74"/><polygon class="cls-3" points="648.8 520 0 520 66.75 416 582.05 416 648.8 520"/><polygon class="cls-4" points="0 0 648.8 0 582.05 104 66.75 104 0 0"/><polygon class="cls-5" points="66.75 416 0 520 0 0 68.42 104 66.75 416"/><polygon class="cls-5" points="582.05 104 648.8 0 648.8 520 582.05 416 582.05 104"/><g id="Слой_2" data-name="Слой 2"><g id="Слой_1-2" data-name="Слой 1-2"><polygon class="cls-6" points="61.91 198.62 16.31 173.5 15.95 328.67 61.58 302.63 61.91 198.62"/><g class="cls-7"><g class="cls-8"><path class="cls-9" d="M29.48,171.25c0,.88-.54,1.25-1.21.84l-13.47-8.27a3.54,3.54,0,0,1-1.51-2.71v-4.16c0-1,.68-1.34,1.51-.78l13.47,9a3.17,3.17,0,0,1,1.21,2.39Z"/><path class="cls-10" d="M43.18,179.82c0,.78-.43,1.15-1,.82l-10.56-6.47a2.94,2.94,0,0,1-1.17-2.29v-3.66c0-.87.52-1.22,1.17-.79l10.55,7.06a2.68,2.68,0,0,1,1,2.05Z"/><path class="cls-10" d="M54.19,186.73c0,.7-.34,1.06-.78.8l-8.48-5.21a2.52,2.52,0,0,1-.93-2v-3.25c0-.78.42-1.12.93-.78L53.42,182a2.36,2.36,0,0,1,.78,1.8Z"/><path class="cls-10" d="M63.23,192.4c0,.64-.29,1-.64.77l-7-4.29a2.2,2.2,0,0,1-.76-1.73V184.2c0-.68.34-1,.76-.76l7,4.66a2.17,2.17,0,0,1,.64,1.59Z"/><path class="cls-10" d="M70.79,197.13c0,.59-.24.92-.54.73l-5.83-3.58a2,2,0,0,1-.63-1.54v-2.69c0-.64.28-1,.63-.73l5.81,3.9a1.91,1.91,0,0,1,.54,1.43Z"/><path class="cls-10" d="M21.63,174.6c0,.93-.61,1.37-1.37.93L4.92,167.07a3.64,3.64,0,0,1-1.71-2.87v-4.47c0-1.06.78-1.45,1.71-.87l15.33,9.3a3.22,3.22,0,0,1,1.37,2.51Z"/><path class="cls-10" d="M37,183.28c0,.82-.48,1.23-1.07.9l-11.83-6.53a3,3,0,0,1-1.31-2.39v-3.89c0-.92.59-1.31,1.31-.87l11.83,7.18A2.69,2.69,0,0,1,37,179.81Z"/><path class="cls-11" d="M49.18,190.16c0,.74-.38,1.12-.86.87l-9.4-5.19a2.52,2.52,0,0,1-1-2.05v-3.44c0-.82.46-1.2,1-.85l9.4,5.7a2.35,2.35,0,0,1,.86,1.86Z"/><path class="cls-12" d="M59.1,195.76c0,.68-.31,1-.7.82l-7.65-4.22a2.19,2.19,0,0,1-.83-1.79V187.5c0-.73.37-1.1.83-.82l7.65,4.64a2.09,2.09,0,0,1,.7,1.64Z"/><path class="cls-10" d="M67.31,200.4c0,.61-.26,1-.59.78l-6.35-3.5a2,2,0,0,1-.68-1.58v-2.8c0-.67.31-1,.68-.79l6.35,3.85a1.83,1.83,0,0,1,.59,1.47Z"/><path class="cls-10" d="M29.48,186.83c0,.88-.54,1.32-1.21,1l-13.47-6.61a3,3,0,0,1-1.51-2.53v-4.17c0-1,.68-1.42,1.51-1l13.47,7.34a2.72,2.72,0,0,1,1.21,2.24Z"/><path class="cls-10" d="M43.18,193.71c0,.78-.43,1.2-1,.94l-10.56-5.17a2.55,2.55,0,0,1-1.17-2.14v-3.66c0-.87.52-1.29,1.17-.94l10.55,5.75a2.36,2.36,0,0,1,1,1.94Z"/><path class="cls-10" d="M54.19,199.25c0,.7-.34,1.1-.78.89L44.93,196a2.2,2.2,0,0,1-.93-1.86v-3.27c0-.78.42-1.18.93-.9l8.49,4.63a2.08,2.08,0,0,1,.78,1.71Z"/><path class="cls-10" d="M63.23,203.8c0,.64-.29,1-.64.84l-7-3.42a1.94,1.94,0,0,1-.76-1.64v-2.95c0-.68.34-1.08.76-.85l7,3.8a1.91,1.91,0,0,1,.64,1.51Z"/><path class="cls-10" d="M70.79,207.59c0,.59-.24.95-.54.8l-5.83-2.86a1.76,1.76,0,0,1-.63-1.46v-2.68c0-.64.28-1,.63-.81l5.81,3.18a1.7,1.7,0,0,1,.54,1.37Z"/><path class="cls-10" d="M21.63,191.16c0,.93-.61,1.43-1.37,1.1L4.92,185.69A3.12,3.12,0,0,1,3.21,183v-4.47a1.1,1.1,0,0,1,1.71-1.08l15.33,7.4a2.78,2.78,0,0,1,1.37,2.34Z"/><path class="cls-13" d="M37,197.95c0,.82-.48,1.29-1.07,1l-11.82-5.08a2.57,2.57,0,0,1-1.31-2.23v-3.89c0-.92.59-1.37,1.31-1l11.83,5.71a2.36,2.36,0,0,1,1.07,2Z"/><path class="cls-10" d="M49.18,203.3c0,.74-.38,1.17-.86,1l-9.4-4a2.18,2.18,0,0,1-1-1.92v-3.46c0-.82.46-1.25,1-1l9.4,4.54a2.07,2.07,0,0,1,.86,1.75Z"/><path class="cls-10" d="M59.1,207.67c0,.68-.31,1.08-.7.91l-7.65-3.28a1.91,1.91,0,0,1-.83-1.69v-3.08c0-.73.37-1.15.83-.93l7.65,3.69a1.83,1.83,0,0,1,.7,1.55Z"/><path class="cls-12" d="M67.31,211.28c0,.61-.26,1-.59.86l-6.35-2.74a1.72,1.72,0,0,1-.68-1.5v-2.78c0-.67.31-1.06.68-.88l6.35,3.08a1.61,1.61,0,0,1,.59,1.39Z"/><path class="cls-9" d="M29.48,202.39c0,.88-.54,1.39-1.21,1.14l-13.47-4.9a2.64,2.64,0,0,1-1.51-2.34V192.1c0-1,.68-1.5,1.51-1.16l13.47,5.67a2.35,2.35,0,0,1,1.21,2.09Z"/><path class="cls-11" d="M43.18,207.6c0,.78-.43,1.25-1,1.06l-10.56-3.88a2.21,2.21,0,0,1-1.17-2v-3.65c0-.87.52-1.37,1.17-1.08l10.55,4.44a2,2,0,0,1,1,1.82Z"/><path class="cls-10" d="M54.19,211.77c0,.7-.34,1.15-.78,1l-8.48-3.11A1.91,1.91,0,0,1,44,207.9v-3.27c0-.78.42-1.23.93-1l8.48,3.57a1.81,1.81,0,0,1,.78,1.6Z"/><path class="cls-10" d="M63.23,215.2c0,.64-.29,1.06-.64.92l-7-2.55a1.69,1.69,0,0,1-.76-1.54v-2.95c0-.68.34-1.12.76-.95l7,2.94a1.67,1.67,0,0,1,.64,1.43Z"/><path class="cls-10" d="M70.79,218.06c0,.59-.24,1-.54.87l-5.83-2.14a1.53,1.53,0,0,1-.63-1.37v-2.68c0-.64.28-1,.63-.89l5.81,2.45a1.49,1.49,0,0,1,.54,1.29Z"/><path class="cls-10" d="M21.63,207.7c0,.93-.61,1.5-1.37,1.27L4.92,204.31a2.67,2.67,0,0,1-1.71-2.44V197.4a1.23,1.23,0,0,1,1.71-1.3l15.33,5.5a2.4,2.4,0,0,1,1.37,2.17Z"/><path class="cls-10" d="M37,212.58c0,.82-.48,1.35-1.07,1.17l-11.83-3.6a2.21,2.21,0,0,1-1.31-2.07v-3.89c0-.92.59-1.46,1.31-1.2l11.83,4.25A2,2,0,0,1,37,209.1Z"/><path class="cls-10" d="M49.18,216.44c0,.74-.38,1.22-.86,1.08l-9.4-2.86a1.89,1.89,0,0,1-1-1.8v-3.44c0-.82.46-1.31,1-1.11l9.4,3.37a1.79,1.79,0,0,1,.86,1.64Z"/><path class="cls-11" d="M59.1,219.59c0,.68-.31,1.12-.7,1l-7.65-2.33a1.66,1.66,0,0,1-.83-1.58V213.6c0-.73.37-1.19.83-1l7.65,2.74a1.6,1.6,0,0,1,.7,1.46Z"/><path class="cls-10" d="M67.31,222.19c0,.61-.26,1-.59.93l-6.35-1.92c-.38-.12-.68-.75-.68-1.41V217c0-.67.31-1.09.68-1l6.35,2.28c.34.12.59.71.59,1.32Z"/><path class="cls-10" d="M29.48,218c0,.88-.54,1.46-1.21,1.29L14.79,216a2.25,2.25,0,0,1-1.51-2.15v-4.17c0-1,.68-1.59,1.51-1.34l13.47,4a2,2,0,0,1,1.21,1.95Z"/><path class="cls-10" d="M43.18,221.48c0,.78-.43,1.31-1,1.18L31.66,220.1a1.9,1.9,0,0,1-1.17-1.86v-3.66c0-.87.52-1.42,1.17-1.23l10.55,3.14a1.78,1.78,0,0,1,1,1.71Z"/><path class="cls-10" d="M54.19,224.27c0,.7-.34,1.19-.78,1.08l-8.49-2.05a1.65,1.65,0,0,1-.93-1.63v-3.27c0-.78.42-1.28.93-1.13l8.49,2.53a1.57,1.57,0,0,1,.78,1.5Z"/><path class="cls-10" d="M63.23,226.59c0,.64-.29,1.09-.64,1l-7-1.71c-.42-.1-.76-.75-.76-1.45v-2.95c0-.68.34-1.17.76-1l7,2.1c.34.11.64.71.64,1.37Z"/><path class="cls-10" d="M70.79,228.52c0,.59-.24,1-.54.93L64.42,228c-.34-.09-.63-.68-.63-1.31V224c0-.64.28-1.07.63-1l5.81,1.73c.3.09.54.64.54,1.23Z"/><path class="cls-10" d="M21.63,224.27c0,.93-.61,1.58-1.37,1.44L4.92,222.94a2.29,2.29,0,0,1-1.71-2.23v-4.48a1.39,1.39,0,0,1,1.71-1.51l15.33,3.6a2.06,2.06,0,0,1,1.37,2Z"/><path class="cls-10" d="M37,227.22c0,.82-.48,1.41-1.07,1.3l-11.83-2.14a1.9,1.9,0,0,1-1.31-1.91v-3.89c0-.92.59-1.53,1.31-1.37L35.92,222A1.76,1.76,0,0,1,37,223.74Z"/><path class="cls-10" d="M49.18,229.58c0,.74-.38,1.27-.86,1.18l-9.4-1.71a1.63,1.63,0,0,1-1-1.67V224c0-.82.46-1.37,1-1.24l9.4,2.21a1.55,1.55,0,0,1,.86,1.54Z"/><path class="cls-10" d="M59.1,231.5c0,.68-.31,1.16-.7,1.08l-7.65-1.37c-.46-.08-.83-.75-.83-1.48v-3.08c0-.73.37-1.24.83-1.13l7.65,1.8c.39.09.7.71.7,1.37Z"/><path class="cls-9" d="M67.31,233.08c0,.61-.26,1.06-.59,1l-6.35-1.15c-.38-.07-.68-.66-.68-1.33v-2.8c0-.67.31-1.13.68-1l6.35,1.49c.34.08.59.64.59,1.25Z"/><path class="cls-13" d="M29.48,233.56c0,.88-.54,1.52-1.21,1.44l-13.47-1.6a1.93,1.93,0,0,1-1.51-2v-4.16c0-1,.68-1.67,1.51-1.53l13.47,2.34a1.75,1.75,0,0,1,1.21,1.8Z"/><path class="cls-10" d="M43.18,235.36c0,.78-.43,1.37-1,1.3l-10.56-1.25a1.63,1.63,0,0,1-1.17-1.71V230c0-.87.52-1.48,1.17-1.37l10.55,1.83a1.54,1.54,0,0,1,1,1.58Z"/><path class="cls-12" d="M54.19,236.81c0,.7-.34,1.23-.78,1.18l-8.48-1c-.51-.06-.93-.74-.93-1.51V232.2c0-.78.42-1.33.93-1.24l8.49,1.47c.43.08.78.7.78,1.41Z"/><path class="cls-10" d="M63.23,238c0,.64-.29,1.12-.64,1.08l-7-.83c-.42,0-.76-.66-.76-1.37v-2.95c0-.68.34-1.21.76-1.14l7,1.21c.34.06.64.63.64,1.27Z"/><path class="cls-13" d="M70.79,239c0,.59-.24,1-.54,1l-5.84-.68c-.34,0-.63-.59-.63-1.23v-2.68c0-.64.28-1.1.63-1l5.84,1c.3.05.54.57.54,1.16Z"/><path class="cls-10" d="M21.63,240.81a1.45,1.45,0,0,1-1.37,1.61l-15.33-.87a2,2,0,0,1-1.71-2v-4.44a1.58,1.58,0,0,1,1.71-1.71l15.33,1.71a1.77,1.77,0,0,1,1.37,1.84Z"/><path class="cls-10" d="M37,241.87c0,.82-.48,1.46-1.07,1.43l-11.83-.68a1.63,1.63,0,0,1-1.31-1.74V237c0-.92.59-1.6,1.31-1.52l11.83,1.32A1.52,1.52,0,0,1,37,238.4Z"/><path class="cls-14" d="M49.18,242.74c0,.74-.38,1.32-.86,1.29l-9.4-.53c-.57,0-1-.72-1-1.54v-3.46c0-.82.46-1.43,1-1.37l9.4,1c.48.05.86.68.86,1.43Z"/><path class="cls-10" d="M59.1,243.42c0,.68-.31,1.19-.7,1.17l-7.65-.44c-.46,0-.83-.64-.83-1.37v-3.08c0-.73.37-1.29.83-1.23l7.65.84c.39,0,.7.62.7,1.29Z"/><path class="cls-10" d="M67.31,244c0,.61-.26,1.09-.59,1.07l-6.35-.36c-.38,0-.68-.58-.68-1.24v-2.8c0-.67.31-1.17.68-1.13l6.35.71c.34,0,.59.56.59,1.17Z"/><path class="cls-10" d="M29.48,249.14a1.44,1.44,0,0,1-1.21,1.59l-13.47.07A1.66,1.66,0,0,1,13.29,249v-4.16a1.57,1.57,0,0,1,1.51-1.71l13.47.67a1.51,1.51,0,0,1,1.21,1.64Z"/><path class="cls-10" d="M43.18,249.23c0,.78-.43,1.42-1,1.42l-10.55.05c-.64,0-1.17-.68-1.17-1.57v-3.67c0-.87.52-1.55,1.17-1.51l10.55.52c.53,0,1,.68,1,1.46Z"/><path class="cls-11" d="M54.19,249.33c0,.7-.34,1.28-.78,1.28l-8.49,0c-.51,0-.93-.62-.93-1.4V246c0-.78.42-1.37.93-1.37l8.49.42c.43,0,.78.61.78,1.31Z"/><path class="cls-10" d="M63.23,249.4c0,.64-.29,1.16-.64,1.16l-7,0c-.42,0-.76-.56-.76-1.26v-2.95c0-.68.34-1.25.76-1.23l7,.34c.34,0,.64.55.64,1.19Z"/><path class="cls-10" d="M70.79,249.45c0,.59-.24,1.07-.54,1.07l-5.84,0c-.34,0-.63-.51-.63-1.15v-2.68c0-.64.28-1.14.63-1.12l5.84.29c.3,0,.54.5.54,1.09Z"/><path class="cls-10" d="M21.63,257.36a1.68,1.68,0,0,1-1.37,1.77l-15.33,1a1.68,1.68,0,0,1-1.71-1.8v-4.44a1.86,1.86,0,0,1,1.71-2l15.33-.19a1.54,1.54,0,0,1,1.37,1.67Z"/><path class="cls-10" d="M37,256.52c0,.82-.48,1.52-1.07,1.56l-11.83.79c-.72,0-1.31-.66-1.31-1.58v-3.89a1.55,1.55,0,0,1,1.31-1.69l11.83-.15c.59,0,1.07.65,1.07,1.48Z"/><path class="cls-10" d="M49.18,255.86c0,.74-.38,1.37-.86,1.39l-9.4.63c-.57,0-1-.59-1-1.41V253c0-.82.46-1.48,1-1.49l9.4-.12c.48,0,.86.59.86,1.33Z"/><path class="cls-10" d="M59.1,255.32c0,.68-.31,1.23-.7,1.26l-7.65.52c-.46,0-.83-.54-.83-1.27v-3.08c0-.73.37-1.33.83-1.34l7.65-.1c.39,0,.7.53.7,1.2Z"/><path class="cls-10" d="M67.31,254.87c0,.61-.26,1.12-.59,1.15l-6.35.42c-.38,0-.68-.49-.68-1.16v-2.8c0-.68.31-1.21.68-1.21l6.35-.08c.34,0,.59.49.59,1.1Z"/><path class="cls-12" d="M29.48,264.72a1.67,1.67,0,0,1-1.21,1.74L14.79,268.2a1.44,1.44,0,0,1-1.51-1.6v-4.16a1.83,1.83,0,0,1,1.51-1.9l13.47-1c.68-.05,1.21.62,1.21,1.49Z"/><path class="cls-10" d="M43.18,263.13c0,.78-.43,1.47-1,1.54L31.66,266c-.64.08-1.17-.55-1.17-1.42v-3.67a1.55,1.55,0,0,1,1.17-1.66l10.55-.79c.53,0,1,.56,1,1.34Z"/><path class="cls-13" d="M54.19,261.85c0,.7-.34,1.32-.78,1.37l-8.48,1.09c-.51.06-.93-.51-.93-1.28v-3.27c0-.78.42-1.43.93-1.47l8.49-.63c.43,0,.78.51.78,1.22Z"/><path class="cls-10" d="M63.23,260.8c0,.64-.29,1.2-.64,1.24l-7,.9c-.42.05-.76-.47-.76-1.17v-3c0-.68.34-1.29.76-1.32l7-.52c.34,0,.64.47.64,1.11Z"/><path class="cls-10" d="M70.79,259.92c0,.59-.24,1.1-.54,1.14l-5.83.75c-.34,0-.63-.43-.63-1.07V258c0-.64.28-1.17.63-1.2l5.81-.43c.3,0,.54.44.54,1Z"/><path class="cls-10" d="M21.63,273.91a2,2,0,0,1-1.37,1.95L4.92,278.78a1.46,1.46,0,0,1-1.71-1.59v-4.47a2.16,2.16,0,0,1,1.71-2.15l15.33-2.09c.76-.1,1.37.57,1.37,1.5Z"/><path class="cls-10" d="M37,271.17a1.7,1.7,0,0,1-1.07,1.71l-11.83,2.26c-.72.14-1.31-.5-1.31-1.42v-3.9A1.8,1.8,0,0,1,24.09,268l11.83-1.61c.59-.08,1.07.52,1.07,1.35Z"/><path class="cls-10" d="M49.18,269c0,.74-.38,1.41-.86,1.5l-9.4,1.8c-.57.11-1-.46-1-1.28v-3.45c0-.82.46-1.54,1-1.62l9.4-1.28c.48-.06.86.48.86,1.22Z"/><path class="cls-10" d="M59.1,267.23c0,.68-.31,1.27-.7,1.35L50.74,270c-.46.09-.83-.43-.83-1.17v-3.08c0-.73.37-1.37.83-1.44l7.65-1c.39-.05.7.45.7,1.11Z"/><path class="cls-10" d="M67.31,265.77c0,.61-.26,1.16-.59,1.22l-6.35,1.21c-.38.07-.68-.41-.68-1.07v-2.8c0-.68.31-1.25.68-1.3l6.35-.87c.34,0,.59.42.59,1Z"/><path class="cls-10" d="M29.48,280.3a2,2,0,0,1-1.21,1.89l-13.47,3.42c-.83.21-1.51-.42-1.51-1.41V280a2.13,2.13,0,0,1,1.51-2.09l13.47-2.67c.68-.13,1.21.47,1.21,1.35Z"/><path class="cls-11" d="M43.18,277a1.69,1.69,0,0,1-1,1.65l-10.56,2.67c-.64.16-1.17-.41-1.17-1.28v-3.66a1.79,1.79,0,0,1,1.17-1.8l10.55-2.11c.53-.11,1,.44,1,1.22Z"/><path class="cls-10" d="M54.19,274.37c0,.7-.34,1.37-.78,1.47L44.93,278c-.51.13-.93-.39-.93-1.17v-3.27a1.57,1.57,0,0,1,.93-1.59l8.49-1.68c.43-.09.78.42.78,1.12Z"/><path class="cls-9" d="M63.23,272.2c0,.64-.29,1.23-.64,1.32l-7,1.76c-.42.11-.76-.38-.76-1.07v-2.95c0-.68.34-1.33.76-1.42l7-1.37c.34-.07.64.39.64,1Z"/><path class="cls-10" d="M70.79,270.38c0,.59-.24,1.12-.54,1.2l-5.83,1.47c-.34.09-.63-.34-.63-1v-2.68c0-.64.28-1.21.63-1.28l5.81-1.16c.3-.06.54.37.54,1Z"/><path class="cls-10" d="M21.63,290.46a2.27,2.27,0,0,1-1.37,2.11L4.92,297.4A1.28,1.28,0,0,1,3.21,296v-4.47a2.53,2.53,0,0,1,1.71-2.37l15.33-4c.76-.2,1.37.4,1.37,1.33Z"/><path class="cls-10" d="M37,285.82a1.93,1.93,0,0,1-1.07,1.83l-11.83,3.72c-.72.23-1.31-.34-1.31-1.26v-3.88a2.09,2.09,0,0,1,1.31-2l11.83-3.08c.59-.15,1.07.39,1.07,1.21Z"/><path class="cls-10" d="M49.18,282.14a1.7,1.7,0,0,1-.86,1.61l-9.4,3c-.57.18-1-.34-1-1.16V282.1a1.8,1.8,0,0,1,1-1.75l9.4-2.44c.48-.12.86.38.86,1.11Z"/><path class="cls-10" d="M59.1,279.14a1.51,1.51,0,0,1-.7,1.43L50.74,283c-.46.14-.83-.34-.83-1.07v-3.08a1.59,1.59,0,0,1,.83-1.55l7.65-2c.39-.1.7.34.7,1Z"/><path class="cls-10" d="M67.31,276.66c0,.61-.26,1.19-.59,1.29l-6.35,2c-.38.12-.68-.34-.68-1v-2.8c0-.68.31-1.29.68-1.37l6.35-1.65c.34-.09.59.34.59,1Z"/><path class="cls-10" d="M29.48,295.88a2.29,2.29,0,0,1-1.21,2.05L14.79,303c-.83.31-1.51-.23-1.51-1.22v-4.18a2.49,2.49,0,0,1,1.51-2.27L28.27,291c.68-.22,1.21.32,1.21,1.2Z"/><path class="cls-10" d="M43.18,290.89a2,2,0,0,1-1,1.77l-10.56,4c-.64.24-1.17-.27-1.17-1.14v-3.66a2.09,2.09,0,0,1,1.17-1.95l10.56-3.4c.53-.17,1,.34,1,1.1Z"/><path class="cls-10" d="M54.19,286.88a1.71,1.71,0,0,1-.78,1.57l-8.48,3.18c-.51.19-.93-.28-.93-1.05v-3.27a1.84,1.84,0,0,1,.93-1.71l8.49-2.74c.43-.14.78.32.78,1Z"/><path class="cls-10" d="M63.23,283.59a1.55,1.55,0,0,1-.64,1.4l-7,2.63c-.42.16-.76-.28-.76-1V283.7a1.64,1.64,0,0,1,.76-1.51l7-2.25c.34-.12.64.31.64,1Z"/><path class="cls-13" d="M70.79,280.84c0,.59-.24,1.16-.54,1.27l-5.83,2.2c-.34.13-.63-.28-.63-.92v-2.68a1.5,1.5,0,0,1,.63-1.37l5.84-1.88c.3-.1.54.3.54.89Z"/><path class="cls-13" d="M21.63,307a2.63,2.63,0,0,1-1.37,2.28L4.92,316a1.14,1.14,0,0,1-1.71-1.16v-4.44a3,3,0,0,1,1.71-2.58l15.33-5.89c.76-.29,1.37.23,1.37,1.16Z"/><path class="cls-10" d="M37,300.47a2.23,2.23,0,0,1-1.07,2l-11.83,5.19c-.72.32-1.31-.17-1.31-1.09v-3.89a2.43,2.43,0,0,1,1.31-2.17l11.83-4.54c.59-.23,1.07.26,1.07,1.08Z"/><path class="cls-14" d="M49.18,295.28a1.94,1.94,0,0,1-.86,1.71l-9.4,4.1c-.57.25-1-.21-1-1v-3.42a2.09,2.09,0,0,1,1-1.88l9.4-3.61c.48-.18.86.27.86,1Z"/><path class="cls-13" d="M59.1,291.05a1.71,1.71,0,0,1-.7,1.52l-7.65,3.35c-.46.2-.83-.23-.83-1v-3.08a1.83,1.83,0,0,1,.83-1.65l7.65-2.94c.39-.15.7.27.7.94Z"/><path class="cls-10" d="M67.31,287.55a1.59,1.59,0,0,1-.59,1.37l-6.35,2.78c-.38.16-.68-.24-.68-.9V288a1.61,1.61,0,0,1,.68-1.47l6.35-2.43c.34-.13.59.27.59.88Z"/><path class="cls-10" d="M29.48,311.46a2.61,2.61,0,0,1-1.21,2.19l-13.47,6.74c-.83.41-1.51,0-1.51-1v-4.17a2.89,2.89,0,0,1,1.51-2.46l13.47-6c.68-.3,1.21.17,1.21,1Z"/><path class="cls-10" d="M43.18,304.78a2.24,2.24,0,0,1-1,1.89l-10.56,5.28c-.64.32-1.17-.12-1.17-1V307.3a2.42,2.42,0,0,1,1.17-2.09l10.56-4.69c.53-.24,1,.21,1,1Z"/><path class="cls-10" d="M54.19,299.4a2,2,0,0,1-.78,1.66l-8.48,4.24c-.51.26-.93-.16-.93-.94V301.1a2.08,2.08,0,0,1,.93-1.82l8.49-3.78c.43-.19.78.22.78.93Z"/><path class="cls-10" d="M63.23,295a1.78,1.78,0,0,1-.64,1.48l-7,3.49c-.42.21-.76-.19-.76-.89v-2.95a1.88,1.88,0,0,1,.76-1.6l7-3.11c.34-.16.64.23.64.87Z"/><path class="cls-10" d="M70.79,291.31a1.62,1.62,0,0,1-.54,1.34l-5.83,2.92c-.34.17-.63-.2-.63-.84V292a1.67,1.67,0,0,1,.63-1.43l5.81-2.6c.3-.13.54.24.54.82Z"/><path class="cls-10" d="M21.63,323.56A3.08,3.08,0,0,1,20.26,326L4.92,334.63c-.95.53-1.71.11-1.71-.95v-4.45a3.45,3.45,0,0,1,1.71-2.79l15.34-7.81c.76-.38,1.37.06,1.37,1Z"/><path class="cls-12" d="M37,315.12a2.58,2.58,0,0,1-1.07,2.09l-11.83,6.65c-.72.41-1.31,0-1.31-.93V319a2.82,2.82,0,0,1,1.31-2.34l11.83-6c.59-.3,1.07.13,1.07,1Z"/><path class="cls-10" d="M49.18,308.42a2.24,2.24,0,0,1-.86,1.82l-9.4,5.29c-.57.32-1-.08-1-.9v-3.45a2.42,2.42,0,0,1,1-2l9.4-4.79c.48-.24.86.16.86.9Z"/><path class="cls-10" d="M59.1,303a2,2,0,0,1-.7,1.61l-7.65,4.3c-.46.26-.83-.13-.83-.86v-3.08a2.09,2.09,0,0,1,.83-1.75l7.65-3.88c.39-.2.7.18.7.85Z"/><path class="cls-14" d="M67.31,298.47a1.8,1.8,0,0,1-.59,1.44l-6.35,3.55c-.38.21-.68-.15-.68-.82v-2.8a1.83,1.83,0,0,1,.68-1.55L66.73,295c.34-.16.59.2.59.81Z"/><path class="cls-10" d="M29.48,327a3,3,0,0,1-1.21,2.34l-13.47,8.41c-.83.52-1.51.14-1.51-.85v-4.16a3.35,3.35,0,0,1,1.51-2.65l13.47-7.68c.68-.38,1.21,0,1.21.9Z"/><path class="cls-10" d="M43.18,318.64a2.58,2.58,0,0,1-1,2l-10.56,6.61c-.64.4-1.17,0-1.17-.84v-3.67a2.79,2.79,0,0,1,1.17-2.24l10.55-6c.53-.3,1,.09,1,.87Z"/><path class="cls-15" d="M54.19,311.92a2.25,2.25,0,0,1-.78,1.76L44.93,319c-.51.32-.93,0-.93-.82v-3.28a2.4,2.4,0,0,1,.93-1.93l8.49-4.84c.43-.25.78.13.78.83Z"/><path class="cls-10" d="M63.23,306.39a2,2,0,0,1-.64,1.56l-7,4.36c-.42.26-.76-.1-.76-.79v-2.95a2.19,2.19,0,0,1,.76-1.71l7-3.95c.34-.2.64.15.64.79Z"/><path class="cls-10" d="M70.79,301.77a1.83,1.83,0,0,1-.54,1.41l-5.83,3.64c-.34.22-.63-.12-.63-.76v-2.68a1.9,1.9,0,0,1,.63-1.51l5.81-3.33c.3-.17.54.17.54.76Z"/><path class="cls-10" d="M37,329.77A3,3,0,0,1,35.92,332l-11.83,8.11c-.72.5-1.31.15-1.31-.77v-3.89a3.26,3.26,0,0,1,1.31-2.5l11.83-7.47c.59-.37,1.07,0,1.07.82Z"/><path class="cls-10" d="M49.18,321.56a2.56,2.56,0,0,1-.86,1.92l-9.4,6.44c-.57.39-1,0-1-.77v-3.42a2.77,2.77,0,0,1,1-2.13l9.4-5.94c.48-.3.86.06.86.8Z"/><path class="cls-10" d="M59.1,314.88a2.3,2.3,0,0,1-.7,1.71l-7.65,5.23c-.46.31-.83,0-.83-.76V318a2.4,2.4,0,0,1,.83-1.85l7.65-4.83c.39-.25.7.1.7.77Z"/><path class="cls-10" d="M67.31,309.34a2,2,0,0,1-.59,1.51l-6.35,4.37c-.38.26-.68-.07-.68-.74v-2.8a2.1,2.1,0,0,1,.68-1.64l6.35-4c.34-.21.59.12.59.74Z"/></g></g><path class="cls-16" d="M53,267.18c0,.47-.23.89-.52.94s-.53-.29-.53-.77.24-.9.53-.94S53,266.71,53,267.18Z"/><path class="cls-16" d="M38.64,248.67c0,.54-.3,1-.68,1s-.68-.44-.68-1,.31-1,.68-1S38.64,248.13,38.64,248.67Z"/><path class="cls-17" d="M20.08,237.86a.47.47,0,0,1-.41.52h0a.58.58,0,0,1-.46-.61c0-.31.21-.55.46-.53A.58.58,0,0,1,20.08,237.86Z"/><path class="cls-17" d="M46.28,294.8a.65.65,0,0,1-.3.58c-.16.07-.3-.08-.3-.34a.65.65,0,0,1,.3-.58C46.14,294.4,46.28,294.55,46.28,294.8Z"/><path class="cls-17" d="M39.8,218.94c0,.27-.15.44-.34.39a.59.59,0,0,1-.34-.57c0-.27.15-.44.34-.39A.59.59,0,0,1,39.8,218.94Z"/><path class="cls-17" d="M57.86,200.32c0,.23-.11.34-.24.29a.63.63,0,0,1-.24-.53c0-.23.11-.34.24-.29A.64.64,0,0,1,57.86,200.32Z"/><path class="cls-18" d="M13.54,168.54V331.63l49.58-28.52V197.05ZM60.83,301.37,18.26,324.48V175.68l42.57,23.11Z"/><line class="cls-19" x1="18.16" y1="175.55" x2="13.71" y2="168.37"/><line class="cls-19" x1="60.89" y1="198.8" x2="63.29" y2="197.09"/><line class="cls-19" x1="60.89" y1="301.37" x2="63.29" y2="303.08"/><line class="cls-19" x1="18.16" y1="324.62" x2="13.71" y2="331.46"/></g></g></svg>