<svg id="Слой_1" data-name="Слой 1" xmlns="http://www.w3.org/2000/svg" viewBox="0 0 648.8 520"><defs><style>.cls-1{fill:#ffde5a;}.cls-2{fill:#b6a784;}.cls-3{fill:#948753;}.cls-4{fill:#ffe47a;}.cls-5{fill:#c0f5fc;}.cls-6{fill:#6d5947;stroke:#000;stroke-miterlimit:10;stroke-width:3px;}</style></defs><title>middleyellow</title><rect class="cls-1" x="58.54" y="91.83" width="535.19" height="333.74"/><polygon class="cls-2" points="648.8 520 0 520 66.75 416 582.05 416 648.8 520"/><polygon class="cls-3" points="0 0 648.8 0 582.05 104 66.75 104 0 0"/><polygon class="cls-4" points="66.75 416 0 520 0 0 68.42 104 66.75 416"/><polygon class="cls-4" points="582.05 104 648.8 0 648.8 520 582.05 416 582.05 104"/><polygon class="cls-5" points="641.13 445.37 588.53 387.34 588.53 150.76 641.13 92.73 641.13 445.37"/><path class="cls-6" d="M585.54,150.76V388.83l59.77,67V83.8Zm6.28,2.23L639,100.91v337l-47.22-52.08Z"/></svg>