<svg id="Слой_1" data-name="Слой 1" xmlns="http://www.w3.org/2000/svg" viewBox="0 0 1030.12 114.03"><defs><style>.cls-1{fill:#d40000;}.cls-1,.cls-2{stroke:#000;stroke-linecap:round;stroke-linejoin:round;stroke-width:3px;}.cls-2{fill:none;}.cls-3{font-size:22px;fill:#fff;font-family:Tahoma-Bold, Tahoma;font-weight:700;}</style></defs><title>poster</title><path class="cls-1" d="M965.6,94s-337.1,7-449.5,7c-112.6,0-450.5-7-450.5-7V24s337.9,7,450.5,7c112.4,0,449.5-7,449.5-7Z" transform="translate(0 0.03)"/><line class="cls-2" x1="65.6" y1="24.53" x2="16.6" y2="14.53"/><line class="cls-2" x1="65.6" y1="94.53" x2="16.6" y2="104.53"/><line class="cls-2" x1="965.6" y1="24.53" x2="1016.6" y2="14.53"/><line class="cls-2" x1="965.6" y1="94.53" x2="1016.6" y2="104.53"/><path class="cls-2" d="M15.6,13.5c-.3-.5-.1-1.1,2-5,2.9-5.3,3.5-5.7,4-6,1.7-1,4.7-1.7,7,0a5.74,5.74,0,0,1,2,6c-.9,3.1-4.9,4-9,5C19.5,14,16.4,14.8,15.6,13.5Z" transform="translate(0 0.03)"/><path class="cls-2" d="M15.6,13.5c.1-.6-1-1.4-3-3-2.5-2-3.8-3-5-3-2.8-.1-4.7,2.6-5,3-.5.8-1.4,1.9-1,3,.5,1.4,2.6,1.8,4,2C9.9,16.3,15.4,15.3,15.6,13.5Z" transform="translate(0 0.03)"/><path class="cls-2" d="M15.6,14.5a18.88,18.88,0,0,0-2,2,12.09,12.09,0,0,0-2,3,11.22,11.22,0,0,0-1,4" transform="translate(0 0.03)"/><path class="cls-2" d="M16.6,14.5a9.48,9.48,0,0,1,2,2,10.38,10.38,0,0,1,2,5,15,15,0,0,1,0,3" transform="translate(0 0.03)"/><path class="cls-2" d="M15.6,104.5c-.9-.8-.5-2.6,0-5,.6-2.9,1.1-5.1,3-6a5.52,5.52,0,0,1,4,0c.3.1,2.6,1.1,3,3,.6,2.6-2.6,5-4,6C21,103,17.1,105.8,15.6,104.5Z" transform="translate(0 0.03)"/><path class="cls-2" d="M15.6,104.5c-.3-1.7-2.7-2.7-4-3a6.32,6.32,0,0,0-5,1c-.3.2-2.4,1.9-2,4,.4,1.9,2.6,2.8,4,3C12,110,15.9,106.9,15.6,104.5Z" transform="translate(0 0.03)"/><path class="cls-2" d="M16.6,104.5a6.82,6.82,0,0,1,4,0,6.91,6.91,0,0,1,3,2,12.19,12.19,0,0,1,3,5" transform="translate(0 0.03)"/><path class="cls-2" d="M17.6,105.5a15,15,0,0,1,0,3,13.82,13.82,0,0,1-1,4" transform="translate(0 0.03)"/><path class="cls-2" d="M1016.6,13.5c1.3-1.9-1.8-5.7-2-6-1-1.2-2.8-3.5-5-3a4.54,4.54,0,0,0-3,4,5.22,5.22,0,0,0,2,4C1011.1,14.7,1015.4,15.2,1016.6,13.5Z" transform="translate(0 0.03)"/><path class="cls-2" d="M1016.6,14.5c-.1-.9,1.2-1.8,3-3,2-1.3,3.9-2.6,6-2a4.15,4.15,0,0,1,3,3c.3,2.3-2.8,3.9-3,4C1022,18.4,1016.8,16.4,1016.6,14.5Z" transform="translate(0 0.03)"/><path class="cls-2" d="M1014.6,14.5a7,7,0,0,0-4,2,12.09,12.09,0,0,0-2,3,12.22,12.22,0,0,0-1,2" transform="translate(0 0.03)"/><path class="cls-2" d="M1015.6,14.5a6.71,6.71,0,0,0,0,2,5.75,5.75,0,0,0,2,4,5.39,5.39,0,0,0,3,1" transform="translate(0 0.03)"/><path class="cls-2" d="M1015.6,103.5c-1-.2-1.5-1.9-2-4-.6-2.3-1-4,0-5s2.8-.7,4,0a4.55,4.55,0,0,1,2,4C1019.5,101.3,1017.1,103.9,1015.6,103.5Z" transform="translate(0 0.03)"/><path class="cls-2" d="M1016.1,104.5c.1-1.1,3-1.8,4-2a5.11,5.11,0,0,1,3,0,3.3,3.3,0,0,1,2,2,2.87,2.87,0,0,1-1,3C1021.8,109.4,1015.9,106.2,1016.1,104.5Z" transform="translate(0 0.03)"/><path class="cls-2" d="M1014.6,103.5a6.91,6.91,0,0,0-3,2,3.5,3.5,0,0,0,0,5" transform="translate(0 0.03)"/><path class="cls-2" d="M1015.6,105.5a12.65,12.65,0,0,0,3,6" transform="translate(0 0.03)"/><text class="cls-3" transform="translate(75.37 57.03)">เข้าร่วมในทีมและติดต่อสื่อสารบนกระทู้อย่างกระตือรือร้น นี่คือทางลัดที่สั้นที่สุดสู่ความสำเร็จ <tspan x="272.71" y="26.4">ความเคารพ และความสำเร็จรุ่งเรือง</tspan></text></svg>