<svg id="Слой_1" data-name="Слой 1" xmlns="http://www.w3.org/2000/svg" viewBox="0 0 1030.12 341.53"><defs><style>.cls-1{fill:#d40000;}.cls-1,.cls-2{stroke:#000;stroke-linecap:round;stroke-linejoin:round;stroke-width:3px;}.cls-2{fill:none;}.cls-3{font-size:46.77px;fill:#fff;font-family:Tahoma-Bold, Tahoma;font-weight:700;}</style></defs><title>poster-small</title><path class="cls-1" d="M965.6,311.27S628.5,340,516.1,340c-112.6,0-450.5-28.73-450.5-28.73V24S403.5,52.73,516.1,52.73C628.5,52.73,965.6,24,965.6,24Z" transform="translate(0 0.03)"/><line class="cls-2" x1="65.6" y1="24.53" x2="16.6" y2="14.53"/><line class="cls-2" x1="65.6" y1="309.79" x2="16.6" y2="319.79"/><line class="cls-2" x1="965.6" y1="24.53" x2="1016.6" y2="14.53"/><line class="cls-2" x1="965.6" y1="313.1" x2="1016.6" y2="323.1"/><path class="cls-2" d="M15.6,13.5c-.3-.5-.1-1.1,2-5,2.9-5.3,3.5-5.7,4-6,1.7-1,4.7-1.7,7,0a5.74,5.74,0,0,1,2,6c-.9,3.1-4.9,4-9,5C19.5,14,16.4,14.8,15.6,13.5Z" transform="translate(0 0.03)"/><path class="cls-2" d="M15.6,13.5c.1-.6-1-1.4-3-3-2.5-2-3.8-3-5-3-2.8-.1-4.7,2.6-5,3-.5.8-1.4,1.9-1,3,.5,1.4,2.6,1.8,4,2C9.9,16.3,15.4,15.3,15.6,13.5Z" transform="translate(0 0.03)"/><path class="cls-2" d="M15.6,14.5a18.88,18.88,0,0,0-2,2,12.09,12.09,0,0,0-2,3,11.22,11.22,0,0,0-1,4" transform="translate(0 0.03)"/><path class="cls-2" d="M16.6,14.5a9.48,9.48,0,0,1,2,2,10.38,10.38,0,0,1,2,5,15,15,0,0,1,0,3" transform="translate(0 0.03)"/><path class="cls-2" d="M15.6,319.76c-.9-.8-.5-2.6,0-5,.6-2.9,1.1-5.1,3-6a5.52,5.52,0,0,1,4,0c.3.1,2.6,1.1,3,3,.6,2.6-2.6,5-4,6C21,318.26,17.1,321.06,15.6,319.76Z" transform="translate(0 0.03)"/><path class="cls-2" d="M15.6,319.76c-.3-1.7-2.7-2.7-4-3a6.32,6.32,0,0,0-5,1c-.3.2-2.4,1.9-2,4,.4,1.9,2.6,2.8,4,3C12,325.26,15.9,322.16,15.6,319.76Z" transform="translate(0 0.03)"/><path class="cls-2" d="M16.6,319.76a6.82,6.82,0,0,1,4,0,6.91,6.91,0,0,1,3,2,12.19,12.19,0,0,1,3,5" transform="translate(0 0.03)"/><path class="cls-2" d="M17.6,320.76a15,15,0,0,1,0,3,13.82,13.82,0,0,1-1,4" transform="translate(0 0.03)"/><path class="cls-2" d="M1016.6,13.5c1.3-1.9-1.8-5.7-2-6-1-1.2-2.8-3.5-5-3a4.54,4.54,0,0,0-3,4,5.22,5.22,0,0,0,2,4C1011.1,14.7,1015.4,15.2,1016.6,13.5Z" transform="translate(0 0.03)"/><path class="cls-2" d="M1016.6,14.5c-.1-.9,1.2-1.8,3-3,2-1.3,3.9-2.6,6-2a4.15,4.15,0,0,1,3,3c.3,2.3-2.8,3.9-3,4C1022,18.4,1016.8,16.4,1016.6,14.5Z" transform="translate(0 0.03)"/><path class="cls-2" d="M1014.6,14.5a7,7,0,0,0-4,2,12.09,12.09,0,0,0-2,3,12.22,12.22,0,0,0-1,2" transform="translate(0 0.03)"/><path class="cls-2" d="M1015.6,14.5a6.71,6.71,0,0,0,0,2,5.75,5.75,0,0,0,2,4,5.39,5.39,0,0,0,3,1" transform="translate(0 0.03)"/><path class="cls-2" d="M1015.6,322.07c-1-.2-1.5-1.9-2-4-.6-2.3-1-4,0-5s2.8-.7,4,0a4.55,4.55,0,0,1,2,4C1019.5,319.87,1017.1,322.47,1015.6,322.07Z" transform="translate(0 0.03)"/><path class="cls-2" d="M1016.1,323.07c.1-1.1,3-1.8,4-2a5.11,5.11,0,0,1,3,0,3.3,3.3,0,0,1,2,2,2.87,2.87,0,0,1-1,3C1021.8,328,1015.9,324.77,1016.1,323.07Z" transform="translate(0 0.03)"/><path class="cls-2" d="M1014.6,322.07a6.91,6.91,0,0,0-3,2,3.5,3.5,0,0,0,0,5" transform="translate(0 0.03)"/><path class="cls-2" d="M1015.6,324.07a12.65,12.65,0,0,0,3,6" transform="translate(0 0.03)"/><text class="cls-3" transform="translate(74.2 126.97)">เข้าร่วมในทีมและติดต่อสื่อสารบนกระทู้อย่า<tspan x="80.31" y="56.12">งกระตือรือร้น นี่คือทางลัดที่สั้นที่สุด</tspan><tspan x="57.27" y="112.24">สู่ความสำเร็จ ความเคารพ และความส</tspan><tspan x="321.47" y="168.36">ำเร็จรุ่งเรือง</tspan></text></svg>